<?xml version="1.0" encoding="UTF-8"?>
<svg xmlns="http://www.w3.org/2000/svg"
     viewBox="-50.0 -50.0 100.0 100.0"
     role="img"
     aria-label="TCS Amsterdam Marathon 2025 route">
  <title>TCS Amsterdam Marathon 2025 route</title>
  <desc>Course route polyline, normalized for abstract display. Source page: https://www.goandrace.com/en/map/2025/tcs-amsterdam-marathon-2025-course-map-1.php</desc>
  <path d="M-30.5,-17.9 L-28.3,-18.4 L-28.2,-19.5 L-30.1,-20.8 L-32.0,-22.0 L-33.7,-23.4 L-34.4,-25.5 L-35.0,-27.7 L-35.0,-29.7 L-32.8,-29.9 L-30.7,-30.8 L-28.5,-31.2 L-26.3,-31.7 L-24.5,-32.9 L-22.4,-33.6 L-20.5,-34.6 L-19.3,-36.5 L-17.2,-37.1 L-15.2,-38.0 L-13.1,-38.1 L-11.7,-36.6 L-12.6,-35.0 L-11.2,-33.9 L-11.2,-31.6 L-11.1,-29.4 L-11.2,-27.2 L-11.4,-24.9 L-12.1,-23.0 L-13.8,-21.6 L-15.6,-20.2 L-17.6,-19.4 L-18.7,-18.1 L-18.8,-15.8 L-18.7,-13.6 L-18.5,-11.4 L-18.8,-9.1 L-18.6,-6.9 L-20.2,-6.3 L-22.4,-6.3 L-24.7,-6.2 L-24.6,-4.2 L-22.3,-4.1 L-20.1,-4.1 L-17.8,-4.2 L-17.8,-5.7 L-18.6,-7.8 L-18.5,-10.0 L-18.4,-12.3 L-18.6,-14.5 L-18.7,-16.8 L-18.5,-19.0 L-16.5,-19.5 L-14.7,-20.8 L-13.1,-20.8 L-11.2,-19.9 L-9.0,-19.6 L-6.7,-19.4 L-4.5,-19.2 L-2.2,-19.0 L0.0,-18.8 L2.2,-18.5 L3.8,-17.7 L4.3,-15.5 L4.8,-13.3 L5.4,-11.1 L3.2,-10.9 L0.9,-11.1 L0.7,-8.9 L2.0,-7.3 L4.0,-6.4 L3.7,-4.5 L2.3,-2.8 L0.1,-2.7 L-1.8,-1.8 L-2.1,0.2 L-1.8,2.4 L-3.0,4.4 L-3.7,6.5 L-4.4,8.6 L-4.6,10.8 L-3.5,12.7 L-1.5,13.6 L0.7,13.8 L2.7,14.9 L4.7,15.9 L6.2,17.3 L4.5,18.7 L3.3,20.4 L3.8,22.6 L3.3,24.7 L3.2,27.0 L3.9,29.1 L5.1,31.0 L4.6,33.1 L3.2,34.8 L1.7,36.5 L0.1,38.1 L-1.5,39.7 L-1.9,41.8 L-3.2,43.3 L-3.9,44.0 L-1.9,42.9 L-0.5,41.6 L-0.6,39.9 L1.0,38.3 L2.6,36.7 L4.1,35.0 L5.5,33.3 L5.9,31.2 L4.9,29.3 L4.1,27.2 L4.1,24.9 L4.8,22.8 L4.3,20.6 L5.7,19.1 L7.4,17.6 L6.6,15.8 L4.6,14.8 L2.7,13.7 L0.6,12.7 L-1.6,12.6 L-3.4,11.3 L-3.5,9.1 L-2.8,7.0 L-2.0,4.8 L-0.9,2.9 L-0.7,0.7 L-0.3,-1.2 L1.9,-1.3 L4.1,-1.7 L5.9,-2.9 L6.8,-4.9 L6.6,-7.1 L8.0,-8.6 L9.2,-7.0 L9.3,-4.8 L9.9,-2.7 L10.1,-0.5 L11.1,1.5 L12.2,3.5 L13.3,5.5 L14.4,7.4 L15.9,8.0 L17.9,6.9 L19.8,5.8 L21.8,4.7 L23.7,3.6 L25.7,2.5 L27.9,2.7 L30.1,3.1 L32.2,3.1 L34.2,2.0 L36.2,0.9 L36.8,-0.6 L36.1,-2.5 L36.1,-4.3 L34.5,-5.7 L32.9,-7.3 L31.1,-8.7 L29.6,-10.3 L28.0,-11.9 L26.5,-13.5 L25.8,-15.4 L25.6,-17.0 L24.1,-18.6 L22.5,-20.2 L24.1,-21.7 L25.7,-23.2 L27.3,-24.8 L29.0,-26.3 L30.6,-27.9 L31.7,-29.5 L30.5,-31.2 L31.7,-33.1 L31.3,-35.3 L30.8,-37.5 L30.5,-39.7 L30.4,-42.0 L30.2,-44.0 L27.9,-44.0 L25.7,-44.0 L23.4,-43.9 L21.2,-43.8 L19.3,-42.8 L17.7,-41.2 L15.8,-40.1 L14.1,-38.8 L11.9,-38.3 L9.8,-37.6 L7.8,-36.6 L5.7,-36.2 L3.8,-35.0 L1.7,-34.3 L-0.5,-33.6 L-2.6,-33.2 L-4.9,-33.4 L-7.1,-33.6 L-9.1,-34.5 L-10.6,-36.2 L-12.3,-37.6 L-14.3,-38.3 L-16.3,-37.4 L-18.5,-36.8 L-20.2,-35.5 L-21.5,-33.8 L-23.5,-33.0 L-25.5,-32.1 L-27.6,-31.3 L-29.8,-31.1 L-31.9,-30.2 L-34.1,-29.9 L-35.2,-28.6 L-34.7,-26.4 L-34.2,-24.2 L-33.9,-22.1 L-33.8,-19.8 L-33.7,-17.6 L-34.4,-16.0 L-35.9,-15.4 L-36.8,-14.9"
        fill="none"
        stroke="currentColor"
        stroke-opacity="0.18"
        stroke-width="2"
        stroke-linecap="round"
        stroke-linejoin="round"
        vector-effect="non-scaling-stroke"/>
</svg>
