<?xml version="1.0" encoding="UTF-8"?>
<svg xmlns="http://www.w3.org/2000/svg"
     viewBox="-50.0 -50.0 100.0 100.0"
     role="img"
     aria-label="Athens Marathon 2025 route">
  <title>Athens Marathon 2025 route</title>
  <desc>Course route polyline, normalized for abstract display. Source page: https://www.goandrace.com/en/map/2025/athens-marathon-2025-athens-course-map-1.php</desc>
  <path d="M34.1,-40.8 L34.5,-40.2 L34.9,-39.5 L35.1,-38.8 L35.2,-38.0 L35.3,-37.2 L35.5,-36.5 L35.6,-35.7 L35.7,-34.9 L35.8,-34.2 L36.0,-33.4 L36.1,-32.7 L36.2,-31.9 L36.4,-31.1 L36.5,-30.4 L36.6,-29.6 L36.7,-28.8 L36.8,-28.1 L36.8,-27.3 L36.8,-26.5 L36.8,-25.7 L37.0,-25.2 L37.8,-25.4 L38.5,-25.6 L39.2,-26.0 L39.7,-26.5 L40.4,-26.4 L40.7,-25.8 L40.1,-25.4 L39.3,-25.4 L38.7,-25.7 L37.9,-25.5 L37.2,-25.3 L36.8,-24.8 L36.8,-24.0 L36.8,-23.2 L36.8,-22.5 L36.8,-21.7 L36.8,-20.9 L36.8,-20.2 L36.9,-19.4 L37.1,-18.6 L37.3,-17.9 L37.5,-17.1 L37.7,-16.4 L37.9,-15.7 L38.2,-14.9 L38.4,-14.2 L38.7,-13.5 L38.9,-12.7 L39.2,-12.0 L39.6,-11.3 L39.9,-10.6 L40.2,-9.9 L40.5,-9.2 L40.8,-8.5 L41.1,-7.8 L41.4,-7.0 L41.4,-6.3 L41.3,-5.5 L41.2,-4.7 L41.2,-4.0 L41.1,-3.2 L41.1,-2.4 L41.0,-1.6 L41.0,-0.9 L41.2,-0.1 L41.5,0.6 L41.7,1.3 L41.9,2.1 L42.2,2.8 L42.5,3.5 L42.9,4.2 L43.1,4.9 L43.2,5.7 L43.4,6.5 L43.6,7.2 L43.8,7.9 L44.0,8.7 L43.9,9.4 L43.7,10.2 L43.1,10.7 L42.5,11.2 L42.0,11.7 L41.9,12.5 L41.5,13.2 L41.2,13.9 L41.2,14.7 L41.5,15.4 L41.4,16.1 L41.3,16.9 L40.9,17.6 L40.6,18.3 L40.0,18.8 L39.6,19.5 L39.3,20.2 L38.8,20.7 L38.2,21.3 L37.6,21.7 L36.8,21.9 L36.1,22.2 L35.5,22.7 L34.8,23.1 L34.0,23.0 L33.3,23.1 L32.6,23.5 L31.9,23.7 L31.2,24.1 L30.4,24.3 L29.7,24.5 L29.0,24.8 L28.3,25.1 L27.6,25.4 L26.8,25.6 L26.1,25.9 L25.4,26.3 L24.8,26.7 L24.1,27.0 L23.3,27.3 L22.6,27.5 L21.8,27.6 L21.1,27.6 L20.3,27.6 L19.5,27.5 L18.8,27.2 L18.1,27.0 L17.3,26.8 L16.7,26.3 L16.4,25.6 L15.6,25.5 L14.8,25.5 L14.1,25.5 L13.3,25.3 L12.5,25.2 L11.8,25.1 L11.0,24.9 L10.3,24.8 L9.5,24.6 L8.7,24.6 L8.0,24.8 L7.2,25.0 L6.5,25.0 L5.7,24.9 L4.9,24.9 L4.2,24.9 L3.4,24.7 L2.7,24.4 L1.9,24.2 L1.2,24.0 L0.4,23.9 L-0.3,23.7 L-1.1,23.5 L-1.8,23.3 L-2.6,23.1 L-3.3,22.9 L-4.0,22.6 L-4.8,22.4 L-5.5,22.3 L-6.3,22.1 L-7.1,22.0 L-7.8,21.8 L-8.6,21.7 L-9.3,21.4 L-10.0,21.0 L-10.7,20.8 L-11.4,20.6 L-12.2,20.4 L-13.0,20.4 L-13.7,20.4 L-14.5,20.5 L-15.3,20.5 L-16.0,20.7 L-16.8,20.9 L-17.5,21.2 L-18.2,21.4 L-19.0,21.6 L-19.7,21.9 L-20.4,22.3 L-21.0,22.7 L-21.7,23.0 L-22.4,23.3 L-23.2,23.5 L-23.9,23.8 L-24.6,24.2 L-25.1,24.8 L-25.7,25.3 L-26.3,25.7 L-27.0,26.0 L-27.7,26.4 L-28.3,26.9 L-28.8,27.5 L-29.4,28.0 L-30.0,28.5 L-30.6,29.0 L-31.2,29.5 L-31.8,30.0 L-32.5,30.3 L-33.1,30.8 L-33.6,31.3 L-34.3,31.8 L-34.8,32.3 L-35.5,32.7 L-36.2,32.7 L-36.7,33.1 L-37.2,33.7 L-37.8,34.2 L-38.4,34.7 L-38.8,35.3 L-39.3,35.9 L-39.9,36.5 L-40.5,36.9 L-41.2,37.1 L-42.0,37.4 L-42.7,37.6 L-43.5,37.5 L-43.8,38.0 L-43.9,38.8 L-44.0,39.5 L-43.9,40.1 L-43.5,40.8"
        fill="none"
        stroke="currentColor"
        stroke-opacity="0.18"
        stroke-width="2"
        stroke-linecap="round"
        stroke-linejoin="round"
        vector-effect="non-scaling-stroke"/>
</svg>
