<?xml version="1.0" encoding="UTF-8"?>
<svg xmlns="http://www.w3.org/2000/svg"
     viewBox="-50.0 -50.0 100.0 100.0"
     role="img"
     aria-label="Zurich Marató Barcelona 2025 route">
  <title>Zurich Marató Barcelona 2025 route</title>
  <desc>Course route polyline, normalized for abstract display. Source page: https://www.goandrace.com/en/map/2025/the-zurich-marato-barcelona-2025-course-map-1.php</desc>
  <path d="M-19.2,16.7 L-19.0,14.4 L-16.9,12.3 L-14.8,10.3 L-12.8,8.2 L-10.3,6.7 L-8.9,4.2 L-6.8,2.1 L-4.8,-0.0 L-5.4,-2.3 L-7.4,-4.4 L-9.4,-4.1 L-11.5,-2.0 L-13.6,0.0 L-15.7,2.1 L-17.8,4.2 L-19.9,6.3 L-21.9,8.3 L-24.0,10.4 L-26.1,12.5 L-28.2,14.6 L-30.3,16.7 L-32.4,18.7 L-34.5,20.8 L-36.5,22.9 L-38.6,25.0 L-40.8,25.5 L-39.9,23.4 L-37.8,21.3 L-35.7,19.2 L-33.6,17.1 L-31.5,15.1 L-29.5,13.0 L-27.4,10.9 L-25.3,8.8 L-23.2,6.7 L-21.1,4.6 L-19.1,2.6 L-17.0,0.5 L-14.9,-1.6 L-12.8,-3.7 L-10.7,-5.8 L-8.7,-7.9 L-6.6,-9.9 L-4.5,-12.0 L-2.4,-14.1 L-0.3,-16.2 L1.7,-18.3 L3.8,-20.4 L5.9,-22.5 L8.0,-24.5 L10.1,-26.6 L11.4,-28.7 L9.3,-30.8 L7.3,-32.9 L7.0,-35.1 L8.9,-37.2 L8.8,-40.2 L5.9,-40.7 L3.5,-40.3 L3.5,-37.4 L3.5,-34.4 L3.5,-31.5 L3.5,-28.5 L3.5,-25.6 L3.3,-22.7 L1.2,-20.6 L-0.8,-18.5 L-2.9,-16.4 L-5.0,-14.4 L-7.1,-12.3 L-9.2,-10.2 L-11.2,-8.1 L-13.3,-6.0 L-15.4,-3.9 L-17.5,-1.9 L-19.6,0.2 L-21.6,2.3 L-23.7,4.4 L-25.8,6.5 L-27.9,8.6 L-30.0,10.6 L-32.0,12.7 L-34.1,14.8 L-36.2,16.9 L-38.3,19.0 L-40.3,21.1 L-42.4,23.2 L-44.0,25.2 L-41.9,27.3 L-39.8,29.4 L-37.7,31.4 L-35.5,30.9 L-33.5,28.8 L-31.4,26.7 L-29.3,24.6 L-27.2,22.6 L-25.1,20.5 L-23.0,18.4 L-20.8,18.4 L-22.1,20.1 L-24.7,21.4 L-25.9,24.0 L-27.6,26.2 L-29.7,28.3 L-31.8,30.4 L-33.8,32.5 L-35.9,34.6 L-35.3,36.5 L-33.1,34.6 L-31.1,32.5 L-29.0,31.8 L-26.9,33.9 L-28.9,36.0 L-30.9,38.1 L-31.9,40.0 L-28.9,40.0 L-26.0,40.0 L-23.1,40.0 L-20.1,40.0 L-17.2,40.1 L-14.2,40.4 L-11.3,40.7 L-9.1,39.9 L-7.6,37.4 L-6.0,34.9 L-4.4,32.5 L-2.9,30.0 L-1.3,27.5 L0.3,25.0 L1.9,22.5 L0.2,20.3 L-1.8,18.2 L-0.3,16.0 L1.8,14.0 L3.9,11.9 L6.0,9.8 L8.2,11.6 L10.2,13.7 L12.3,15.8 L14.4,17.8 L16.2,18.2 L18.7,16.7 L20.3,14.3 L22.5,12.4 L25.0,10.9 L26.5,8.4 L28.1,6.0 L30.2,3.9 L31.3,1.2 L32.8,-1.4 L34.8,-3.5 L37.1,-5.3 L39.1,-7.4 L41.2,-9.5 L43.2,-11.7 L43.5,-13.7 L41.5,-15.8 L42.4,-18.2 L44.0,-20.7 L41.9,-20.5 L39.1,-19.6 L36.3,-18.7 L33.5,-17.8 L30.7,-16.9 L27.9,-16.0 L25.1,-15.1 L22.3,-14.2 L19.5,-13.3 L16.7,-12.4 L13.9,-11.5 L11.1,-10.6 L8.3,-9.7 L10.4,-10.0 L13.2,-10.9 L16.0,-11.8 L18.8,-12.7 L21.6,-13.7 L24.3,-14.6 L27.1,-15.5 L29.9,-16.5 L32.7,-17.4 L35.5,-18.3 L36.5,-17.8 L34.4,-15.8 L32.3,-13.7 L30.3,-11.6 L28.2,-9.5 L26.1,-7.4 L24.0,-5.3 L22.0,-3.2 L19.7,-3.0 L17.5,-4.6 L15.4,-2.5 L13.3,-0.5 L11.2,1.6 L9.4,3.7 L11.5,5.8 L13.6,7.9 L15.7,10.0 L17.8,12.0 L18.8,14.1 L16.8,16.2 L14.7,17.7 L12.6,15.6 L10.5,13.5 L8.4,11.5 L6.3,9.4 L4.2,7.3 L1.8,8.1 L-0.3,10.1 L-2.5,12.0 L-4.6,10.0 L-6.7,8.3 L-8.8,10.3 L-10.9,12.4 L-11.4,14.6 L-8.7,13.4 L-6.0,12.2 L-3.8,13.7"
        fill="none"
        stroke="currentColor"
        stroke-opacity="0.18"
        stroke-width="2"
        stroke-linecap="round"
        stroke-linejoin="round"
        vector-effect="non-scaling-stroke"/>
</svg>
