<?xml version="1.0" encoding="UTF-8"?>
<svg xmlns="http://www.w3.org/2000/svg"
     viewBox="-50.0 -50.0 100.0 100.0"
     role="img"
     aria-label="BMW Berlin-Marathon 2025 route">
  <title>BMW Berlin-Marathon 2025 route</title>
  <desc>Course route polyline, normalized for abstract display. Source page: https://www.goandrace.com/en/map/2025/bmw-berlin-marathon-2025-course-map-1.php</desc>
  <path d="M3.1,-16.2 L1.4,-16.0 L-0.4,-15.9 L-2.1,-15.7 L-3.6,-15.8 L-5.1,-15.4 L-6.9,-15.2 L-8.6,-15.0 L-10.3,-14.8 L-12.0,-14.6 L-13.7,-14.4 L-15.5,-14.2 L-17.2,-14.0 L-18.9,-13.8 L-19.6,-15.1 L-19.1,-16.7 L-18.3,-18.2 L-17.4,-19.7 L-16.7,-21.3 L-16.0,-22.9 L-15.2,-24.2 L-13.9,-25.0 L-12.3,-25.5 L-10.6,-26.1 L-9.0,-26.6 L-7.3,-26.3 L-5.6,-25.9 L-3.9,-25.5 L-2.2,-25.1 L-0.6,-24.8 L1.1,-24.4 L2.8,-24.1 L4.5,-23.8 L6.2,-23.5 L7.9,-23.1 L9.2,-21.9 L10.9,-21.9 L12.3,-22.7 L13.9,-23.3 L15.6,-23.7 L17.3,-24.2 L18.9,-24.6 L19.4,-25.9 L19.2,-27.6 L20.4,-28.4 L22.1,-29.0 L23.7,-29.6 L25.3,-30.2 L27.0,-30.4 L28.8,-30.5 L30.4,-30.2 L32.1,-29.7 L33.7,-29.1 L35.3,-28.4 L36.6,-27.3 L38.1,-26.4 L38.1,-25.1 L37.1,-23.7 L37.7,-22.6 L39.2,-21.8 L40.8,-21.0 L42.3,-20.2 L44.0,-19.9 L43.5,-18.9 L42.9,-17.3 L42.0,-15.7 L41.2,-14.2 L40.4,-12.7 L39.7,-11.1 L38.3,-11.4 L36.7,-12.0 L36.0,-10.4 L35.3,-8.9 L34.5,-7.3 L33.8,-5.7 L33.1,-4.3 L32.7,-2.9 L34.2,-2.1 L35.8,-1.3 L37.3,-0.6 L38.1,0.7 L38.8,2.3 L39.4,3.9 L40.1,5.5 L40.7,7.2 L41.3,8.8 L41.9,10.4 L41.4,12.0 L39.9,11.4 L38.2,11.0 L36.5,10.6 L34.8,10.2 L33.2,9.9 L31.5,9.5 L29.8,9.0 L28.2,8.5 L26.6,7.9 L25.0,7.4 L23.3,6.8 L21.7,6.3 L20.0,5.8 L18.4,5.3 L16.7,5.0 L15.2,5.8 L13.7,6.6 L12.1,6.9 L10.4,6.3 L8.8,5.8 L7.2,5.2 L5.5,4.8 L3.8,4.3 L3.5,5.7 L3.4,7.4 L2.1,8.2 L0.4,8.5 L-1.3,8.7 L-3.0,9.0 L-4.7,9.3 L-6.1,9.7 L-6.1,11.5 L-6.1,13.2 L-6.1,14.9 L-6.1,16.6 L-6.1,18.4 L-6.7,19.9 L-7.8,21.2 L-8.8,22.6 L-9.9,24.0 L-10.9,25.4 L-11.9,26.8 L-12.9,28.2 L-13.9,29.0 L-15.1,27.7 L-16.2,26.9 L-17.9,26.8 L-19.6,26.8 L-21.4,26.7 L-22.6,27.8 L-24.1,28.8 L-25.6,29.7 L-27.1,30.5 L-28.3,30.0 L-29.9,30.5 L-31.5,30.0 L-33.2,29.6 L-34.9,29.1 L-36.5,28.6 L-38.2,28.1 L-39.6,27.5 L-40.7,26.2 L-41.8,24.8 L-42.9,23.5 L-44.0,22.2 L-43.8,20.9 L-42.6,19.6 L-41.3,18.4 L-40.1,17.2 L-38.8,16.1 L-37.5,14.9 L-36.2,13.8 L-34.9,12.6 L-33.6,11.5 L-32.3,10.4 L-30.6,10.3 L-28.8,10.3 L-27.3,9.6 L-25.7,8.9 L-24.7,8.0 L-25.8,6.7 L-26.8,5.3 L-26.7,3.7 L-26.2,2.0 L-25.8,0.3 L-25.2,-1.3 L-24.0,-2.1 L-22.3,-2.5 L-20.6,-3.0 L-18.9,-3.4 L-17.3,-3.9 L-15.6,-4.4 L-14.0,-5.0 L-12.4,-5.6 L-10.8,-5.0 L-9.3,-4.1 L-7.9,-3.2 L-6.3,-2.6 L-4.7,-2.3 L-3.1,-1.7 L-1.4,-1.2 L0.1,-0.6 L1.7,0.0 L3.4,0.6 L4.4,-0.1 L5.0,-1.7 L5.8,-3.2 L6.6,-4.8 L7.5,-6.2 L8.2,-7.8 L8.8,-9.4 L10.2,-10.2 L11.9,-10.4 L13.6,-10.7 L15.4,-10.9 L17.1,-11.1 L18.8,-11.2 L20.5,-11.4 L22.2,-11.7 L23.9,-11.9 L24.9,-12.8 L23.8,-13.5 L22.9,-14.3 L22.7,-16.0 L21.0,-15.8 L19.3,-15.7 L18.5,-16.7 L17.7,-17.6 L16.0,-17.4 L14.3,-17.3 L12.5,-17.2 L10.8,-17.0"
        fill="none"
        stroke="currentColor"
        stroke-opacity="0.18"
        stroke-width="2"
        stroke-linecap="round"
        stroke-linejoin="round"
        vector-effect="non-scaling-stroke"/>
</svg>
