<?xml version="1.0" encoding="UTF-8"?>
<svg xmlns="http://www.w3.org/2000/svg"
     viewBox="-50.0 -50.0 100.0 100.0"
     role="img"
     aria-label="Boston Marathon 2025 route">
  <title>Boston Marathon 2025 route</title>
  <desc>Course route polyline, normalized for abstract display. Source page: https://www.goandrace.com/en/map/2025/boston-marathon-2025-boston-course-map-1.php</desc>
  <path d="M-44.0,16.2 L-43.7,15.8 L-43.4,15.5 L-43.0,15.3 L-42.6,15.1 L-42.2,14.9 L-41.8,14.6 L-41.3,14.4 L-40.9,14.4 L-40.4,14.5 L-40.0,14.4 L-39.5,14.2 L-39.1,14.1 L-38.7,13.8 L-38.3,13.6 L-37.9,13.3 L-37.5,13.0 L-37.1,12.8 L-36.7,12.5 L-36.3,12.3 L-35.9,12.1 L-35.5,11.8 L-35.3,11.4 L-35.0,11.0 L-34.8,10.6 L-34.5,10.2 L-34.2,9.8 L-33.9,9.5 L-33.5,9.2 L-33.1,9.1 L-32.6,8.9 L-32.2,8.7 L-31.8,8.6 L-31.3,8.4 L-30.9,8.2 L-30.5,7.9 L-30.3,7.5 L-30.0,7.1 L-29.8,6.8 L-29.6,6.3 L-29.4,5.9 L-29.3,5.4 L-29.0,5.0 L-28.7,4.7 L-28.3,4.5 L-27.9,4.2 L-27.4,4.3 L-27.0,4.4 L-26.6,4.6 L-26.1,4.8 L-25.8,4.5 L-25.4,4.2 L-24.9,4.0 L-24.5,3.8 L-24.1,3.7 L-23.6,3.5 L-23.2,3.4 L-22.7,3.2 L-22.3,3.1 L-21.8,3.0 L-21.4,2.8 L-20.9,2.7 L-20.5,2.6 L-20.0,2.4 L-19.6,2.3 L-19.1,2.2 L-18.6,2.1 L-18.2,2.1 L-17.7,2.1 L-17.2,2.0 L-16.8,2.0 L-16.3,2.0 L-15.8,2.0 L-15.3,1.9 L-14.9,1.8 L-14.4,1.7 L-14.0,1.6 L-13.5,1.7 L-13.1,1.9 L-12.6,2.0 L-12.1,2.0 L-11.7,1.9 L-11.2,1.9 L-10.8,1.8 L-10.3,1.7 L-9.8,1.6 L-9.4,1.5 L-8.9,1.4 L-8.5,1.3 L-8.0,1.1 L-7.6,0.9 L-7.2,0.6 L-6.8,0.4 L-6.4,0.2 L-6.0,-0.1 L-5.6,-0.4 L-5.2,-0.7 L-4.9,-1.0 L-4.4,-1.1 L-4.0,-1.3 L-3.6,-1.5 L-3.1,-1.6 L-2.6,-1.7 L-2.2,-1.7 L-1.7,-1.7 L-1.2,-1.7 L-0.8,-1.7 L-0.3,-1.7 L0.2,-1.7 L0.6,-1.8 L1.1,-1.9 L1.5,-2.1 L1.9,-2.4 L2.1,-2.8 L2.3,-3.2 L2.6,-3.6 L2.9,-4.0 L3.2,-4.3 L3.5,-4.6 L3.9,-4.9 L4.2,-5.3 L4.5,-5.7 L4.7,-6.1 L5.0,-6.4 L5.4,-6.7 L5.7,-7.1 L6.1,-7.4 L6.4,-7.7 L6.8,-8.0 L6.9,-8.5 L7.1,-8.9 L7.3,-9.3 L7.7,-9.6 L8.2,-9.6 L8.6,-9.8 L9.0,-10.1 L9.3,-10.4 L9.7,-10.7 L10.0,-11.0 L10.3,-11.4 L10.6,-11.8 L10.9,-12.1 L11.2,-12.4 L11.4,-12.9 L11.6,-13.3 L11.8,-13.7 L12.2,-13.7 L12.6,-13.5 L13.0,-13.4 L13.5,-13.4 L14.0,-13.3 L14.4,-13.1 L14.7,-12.8 L15.2,-12.7 L15.6,-12.8 L16.1,-12.9 L16.5,-12.7 L16.9,-12.9 L17.4,-13.1 L17.8,-13.0 L18.3,-13.2 L18.7,-13.2 L19.2,-13.0 L19.7,-13.0 L20.1,-13.0 L20.5,-12.7 L20.8,-12.4 L21.3,-12.6 L21.8,-12.6 L22.2,-12.6 L22.7,-12.7 L23.2,-12.7 L23.6,-12.6 L24.1,-12.6 L24.5,-12.8 L25.0,-12.8 L25.4,-13.0 L25.7,-13.3 L26.1,-13.5 L26.6,-13.6 L27.1,-13.6 L27.5,-13.6 L28.0,-13.5 L28.4,-13.3 L28.8,-13.1 L29.2,-12.9 L29.5,-12.5 L29.9,-12.6 L30.4,-12.7 L30.8,-12.8 L31.3,-13.0 L31.8,-13.1 L32.2,-13.2 L32.6,-13.4 L33.1,-13.5 L33.6,-13.5 L34.0,-13.6 L34.5,-13.8 L34.9,-14.0 L35.4,-14.1 L35.8,-14.3 L36.2,-14.4 L36.7,-14.6 L37.1,-14.8 L37.6,-14.9 L38.0,-15.1 L38.4,-15.3 L38.9,-15.5 L39.3,-15.6 L39.8,-15.8 L40.2,-15.9 L40.7,-16.0 L41.1,-16.0 L41.6,-16.0 L42.0,-15.9 L42.2,-15.6 L42.7,-15.8 L43.1,-15.9 L43.6,-16.1 L44.0,-16.2"
        fill="none"
        stroke="currentColor"
        stroke-opacity="0.18"
        stroke-width="2"
        stroke-linecap="round"
        stroke-linejoin="round"
        vector-effect="non-scaling-stroke"/>
</svg>
