<?xml version="1.0" encoding="UTF-8"?>
<svg xmlns="http://www.w3.org/2000/svg"
     viewBox="-50.0 -50.0 100.0 100.0"
     role="img"
     aria-label="Sanlam Cape Town Marathon 2025 route">
  <title>Sanlam Cape Town Marathon 2025 route</title>
  <desc>Course route polyline, normalized for abstract display. Source page: https://www.goandrace.com/en/map/2025/sanlam-cape-town-marathon-2025-course-map-1.php</desc>
  <path d="M-20.6,-36.1 L-21.0,-37.6 L-21.0,-39.3 L-19.4,-39.5 L-18.2,-38.7 L-17.0,-37.6 L-15.7,-36.6 L-14.4,-35.6 L-13.4,-34.3 L-14.5,-33.2 L-15.8,-32.1 L-16.9,-31.0 L-15.9,-29.8 L-14.8,-28.6 L-13.2,-28.2 L-11.7,-27.6 L-11.0,-26.1 L-10.1,-24.7 L-8.7,-25.5 L-7.1,-25.8 L-5.6,-25.1 L-4.3,-24.2 L-3.0,-23.2 L-1.6,-22.2 L-0.3,-21.3 L0.8,-20.1 L0.6,-18.6 L-0.6,-17.5 L-1.4,-16.1 L-1.3,-14.4 L-0.8,-12.9 L0.3,-11.6 L1.4,-10.4 L2.8,-9.5 L4.3,-9.1 L4.5,-10.7 L4.6,-12.4 L5.9,-12.6 L7.5,-12.2 L9.1,-11.8 L10.7,-11.3 L12.3,-10.9 L13.8,-10.3 L15.4,-9.7 L16.8,-8.9 L18.0,-7.8 L19.3,-6.7 L20.5,-5.6 L21.7,-4.4 L22.8,-3.3 L23.8,-1.9 L24.7,-0.6 L25.7,0.7 L26.5,2.2 L27.2,3.7 L27.8,5.2 L28.5,6.7 L29.0,8.3 L29.1,9.9 L29.1,11.6 L28.8,13.2 L28.5,14.8 L28.2,16.4 L27.6,17.9 L27.4,19.6 L26.4,20.9 L25.8,22.4 L25.2,23.9 L24.6,25.5 L24.1,27.0 L23.6,28.6 L23.2,30.2 L23.4,31.7 L24.8,32.6 L25.1,34.2 L25.0,35.8 L25.0,37.5 L25.3,39.1 L26.0,39.5 L25.7,38.1 L26.3,36.6 L27.1,35.2 L28.0,33.8 L28.7,32.3 L29.4,30.8 L29.9,29.2 L30.3,27.6 L30.8,26.0 L31.4,24.5 L31.9,22.9 L32.5,21.4 L34.0,21.7 L35.5,22.4 L36.8,23.4 L38.2,24.2 L39.7,25.0 L41.2,25.7 L42.6,26.4 L43.6,25.3 L44.0,23.7 L43.0,22.4 L42.1,21.1 L41.2,19.7 L40.2,18.4 L39.6,16.9 L39.6,15.2 L39.8,13.6 L39.9,12.0 L40.3,10.3 L38.9,9.4 L37.7,10.2 L36.6,11.5 L35.8,12.9 L35.3,14.4 L34.8,16.0 L34.3,17.4 L33.2,16.2 L32.3,14.8 L31.9,13.2 L32.0,11.6 L32.4,10.0 L32.8,8.4 L33.1,6.8 L33.1,5.1 L32.8,3.5 L32.7,1.9 L33.1,0.2 L33.0,-1.4 L32.6,-3.0 L31.8,-4.4 L30.6,-5.5 L29.9,-7.0 L29.4,-8.6 L28.5,-9.8 L26.9,-10.0 L25.3,-10.5 L23.7,-11.0 L22.1,-11.5 L20.5,-11.9 L19.0,-12.4 L17.4,-12.8 L15.8,-13.1 L14.1,-13.3 L12.5,-13.6 L10.9,-13.8 L9.2,-14.0 L7.6,-14.2 L5.9,-14.2 L4.3,-14.2 L2.6,-14.2 L1.0,-13.8 L-0.2,-13.1 L-1.8,-13.2 L-3.5,-13.3 L-5.1,-13.4 L-6.6,-13.5 L-7.9,-14.6 L-9.1,-15.7 L-10.4,-16.7 L-11.5,-15.6 L-12.6,-14.4 L-13.7,-13.2 L-14.8,-12.0 L-15.9,-10.8 L-17.0,-9.8 L-17.2,-11.3 L-16.6,-12.8 L-15.8,-14.2 L-14.7,-15.4 L-13.6,-16.6 L-12.5,-17.8 L-11.4,-19.0 L-10.3,-20.3 L-10.7,-21.5 L-11.9,-22.6 L-12.9,-23.9 L-13.5,-25.4 L-14.2,-26.9 L-15.1,-28.3 L-16.2,-29.5 L-17.4,-30.7 L-18.7,-31.5 L-20.1,-31.9 L-21.7,-32.1 L-23.3,-31.9 L-25.0,-31.8 L-26.6,-31.7 L-28.3,-31.5 L-29.6,-31.8 L-30.9,-32.0 L-32.1,-30.9 L-33.5,-30.1 L-34.9,-29.2 L-36.1,-28.0 L-36.8,-26.6 L-37.5,-25.1 L-38.0,-23.5 L-38.6,-22.0 L-39.8,-20.9 L-41.3,-20.2 L-42.7,-19.3 L-44.0,-18.9 L-42.6,-19.7 L-41.6,-21.0 L-40.0,-21.0 L-38.7,-21.9 L-38.1,-23.4 L-37.7,-25.0 L-36.9,-26.5 L-36.2,-28.0 L-35.0,-29.1 L-33.7,-30.1 L-32.3,-30.9 L-31.1,-32.0 L-29.6,-32.7 L-28.0,-33.0 L-26.4,-32.6 L-24.8,-32.4 L-23.1,-32.5 L-22.1,-33.5"
        fill="none"
        stroke="currentColor"
        stroke-opacity="0.18"
        stroke-width="2"
        stroke-linecap="round"
        stroke-linejoin="round"
        vector-effect="non-scaling-stroke"/>
</svg>
