<?xml version="1.0" encoding="UTF-8"?>
<svg xmlns="http://www.w3.org/2000/svg"
     viewBox="-50.0 -50.0 100.0 100.0"
     role="img"
     aria-label="Bank of America Chicago Marathon 2025 route">
  <title>Bank of America Chicago Marathon 2025 route</title>
  <desc>Course route polyline, normalized for abstract display. Source page: https://www.goandrace.com/en/map/2025/bank-of-america-chicago-marathon-2025-course-map-1.php</desc>
  <path d="M14.9,8.1 L15.0,6.8 L15.0,5.6 L15.0,4.3 L15.0,3.0 L15.1,1.8 L15.2,0.5 L14.2,0.2 L12.9,0.3 L11.6,0.3 L11.0,0.9 L10.9,2.2 L10.9,3.4 L11.0,4.7 L11.0,6.0 L11.0,7.3 L11.1,8.5 L11.1,9.8 L10.1,10.1 L8.9,10.1 L8.7,9.0 L8.7,7.7 L8.6,6.4 L8.6,5.2 L8.6,3.9 L8.6,2.6 L8.6,1.3 L8.5,0.1 L8.5,-1.2 L8.5,-2.5 L8.5,-3.7 L8.4,-5.0 L8.4,-6.3 L8.4,-7.6 L8.3,-8.8 L8.3,-10.1 L8.3,-11.4 L8.3,-12.6 L8.2,-13.9 L8.4,-15.1 L8.9,-16.0 L8.3,-17.1 L7.7,-18.2 L7.4,-19.5 L6.9,-20.6 L6.8,-21.8 L6.8,-23.1 L6.8,-24.3 L8.0,-24.4 L7.4,-25.6 L6.9,-26.7 L6.3,-27.9 L5.5,-28.8 L4.9,-29.9 L4.9,-31.2 L4.8,-32.4 L4.8,-33.7 L4.7,-35.0 L4.5,-36.2 L4.1,-37.4 L3.6,-38.6 L3.1,-39.8 L2.6,-41.0 L2.1,-42.1 L1.8,-43.4 L1.0,-44.0 L-0.2,-43.9 L-0.6,-43.0 L-0.2,-41.8 L0.3,-40.7 L0.8,-39.5 L1.4,-38.4 L1.9,-37.2 L2.1,-36.0 L2.2,-34.7 L2.2,-33.4 L2.2,-32.2 L2.2,-30.9 L1.9,-29.7 L2.2,-28.5 L2.8,-27.4 L3.4,-26.3 L3.9,-25.1 L4.4,-23.9 L4.9,-22.8 L5.5,-21.6 L5.1,-20.7 L5.2,-19.4 L5.2,-18.2 L5.2,-16.9 L5.3,-15.6 L5.3,-14.4 L5.9,-13.7 L7.2,-13.7 L7.4,-12.7 L7.4,-11.4 L7.5,-10.1 L7.5,-8.8 L7.5,-7.6 L7.6,-6.3 L7.6,-5.0 L7.6,-3.7 L7.7,-2.5 L7.7,-1.2 L7.7,0.1 L7.7,1.3 L7.8,2.6 L7.6,3.8 L6.5,4.2 L6.1,5.3 L6.1,6.6 L6.2,7.8 L6.2,9.1 L5.0,9.2 L3.7,9.3 L2.5,9.3 L1.2,9.3 L-0.1,9.3 L-1.4,9.4 L-2.6,9.4 L-3.9,9.4 L-5.2,9.4 L-6.5,9.5 L-7.7,9.5 L-9.0,9.5 L-10.3,9.6 L-11.5,9.6 L-12.8,9.6 L-14.1,9.6 L-15.2,9.8 L-14.6,10.6 L-13.4,10.5 L-12.1,10.5 L-10.8,10.5 L-9.6,10.5 L-8.3,10.4 L-7.0,10.4 L-5.7,10.4 L-4.5,10.4 L-3.2,10.3 L-1.9,10.3 L-0.7,10.3 L0.6,10.2 L0.6,11.5 L0.7,12.8 L0.7,14.1 L0.7,15.3 L0.4,16.2 L-0.9,16.3 L-2.2,16.3 L-3.4,16.4 L-4.7,16.4 L-6.0,16.4 L-7.1,16.6 L-7.1,17.9 L-7.1,19.1 L-7.1,20.4 L-7.0,21.7 L-7.0,22.9 L-7.0,24.2 L-6.2,24.7 L-5.0,24.7 L-3.7,24.7 L-2.4,24.7 L-1.2,24.7 L0.1,24.6 L1.0,25.1 L1.0,26.3 L1.0,27.6 L-0.2,27.8 L-1.3,28.5 L-0.4,28.6 L0.9,28.5 L2.2,28.5 L3.5,28.5 L4.7,28.5 L6.0,28.4 L7.3,28.4 L8.5,28.4 L8.8,29.4 L8.9,30.7 L8.8,32.0 L8.8,33.2 L9.7,33.7 L11.0,33.7 L12.3,33.6 L13.3,33.8 L13.3,35.1 L13.4,36.4 L13.4,37.6 L13.4,38.9 L13.5,40.2 L13.5,41.5 L13.5,42.7 L13.5,44.0 L14.4,43.9 L14.3,42.7 L14.3,41.4 L14.3,40.1 L14.2,38.9 L13.5,38.3 L13.5,37.0 L13.5,35.7 L13.5,34.5 L13.5,33.2 L13.3,31.9 L13.3,30.6 L13.3,29.4 L13.3,28.1 L13.2,26.8 L13.2,25.6 L13.2,24.3 L13.2,23.0 L13.1,21.7 L13.1,20.5 L13.1,19.2 L13.1,17.9 L14.3,17.8 L15.1,17.3 L15.0,16.1"
        fill="none"
        stroke="currentColor"
        stroke-opacity="0.18"
        stroke-width="2"
        stroke-linecap="round"
        stroke-linejoin="round"
        vector-effect="non-scaling-stroke"/>
</svg>
