<?xml version="1.0" encoding="UTF-8"?>
<svg xmlns="http://www.w3.org/2000/svg"
     viewBox="-50.0 -50.0 100.0 100.0"
     role="img"
     aria-label="Walt Disney World Marathon Weekend 2025 route">
  <title>Walt Disney World Marathon Weekend 2025 route</title>
  <desc>Course route polyline, normalized for abstract display. Source page: https://www.goandrace.com/en/map/2025/walt-disney-world-marathon-weekend-2025-orlando-course-map-1.php</desc>
  <path d="M28.1,8.8 L26.5,7.1 L24.7,5.7 L22.5,4.9 L20.2,4.5 L17.9,4.4 L15.6,4.7 L13.5,5.5 L11.7,7.0 L9.8,8.3 L9.2,7.0 L7.2,7.1 L7.1,9.1 L9.3,9.1 L11.3,8.0 L13.6,7.6 L15.8,7.2 L16.8,5.6 L15.2,6.3 L15.4,8.6 L16.1,10.6 L17.3,12.5 L17.3,14.5 L15.6,15.8 L14.7,17.7 L15.4,19.8 L16.5,18.6 L18.7,18.8 L19.7,20.2 L21.8,21.0 L23.4,19.8 L25.2,18.9 L27.5,18.8 L29.3,17.9 L30.9,16.2 L30.6,14.0 L29.7,11.9 L28.5,9.9 L27.1,8.1 L25.4,6.5 L23.3,5.5 L21.1,5.0 L18.8,4.7 L16.5,4.7 L14.3,5.3 L12.3,6.6 L10.5,8.0 L8.5,9.1 L6.4,10.0 L4.2,10.9 L2.1,11.7 L-0.1,12.4 L-1.9,13.7 L-1.1,15.8 L0.8,15.4 L0.5,13.2 L-0.1,11.0 L-0.7,8.7 L-1.5,6.6 L-2.3,4.4 L-2.9,2.2 L-3.5,-0.1 L-4.3,-2.2 L-5.1,-4.4 L-5.9,-6.6 L-7.3,-8.3 L-9.3,-9.5 L-11.6,-10.0 L-13.8,-10.7 L-15.9,-11.7 L-16.1,-13.6 L-17.2,-15.6 L-18.1,-17.7 L-17.3,-19.0 L-15.4,-19.7 L-15.4,-22.0 L-15.4,-23.3 L-14.2,-25.1 L-13.2,-27.0 L-11.6,-28.6 L-10.9,-30.8 L-11.1,-33.1 L-11.9,-35.3 L-12.5,-37.5 L-12.3,-39.8 L-13.3,-39.1 L-15.3,-38.7 L-17.4,-39.3 L-17.0,-41.5 L-15.1,-41.7 L-16.1,-43.5 L-17.5,-42.2 L-19.2,-42.1 L-21.4,-41.7 L-23.0,-41.6 L-23.4,-43.8 L-25.1,-44.0 L-26.0,-41.9 L-27.2,-40.4 L-27.9,-38.3 L-27.9,-36.0 L-28.0,-33.7 L-27.9,-31.4 L-27.5,-29.2 L-26.5,-27.3 L-25.3,-25.3 L-24.1,-23.3 L-22.9,-21.4 L-22.0,-19.3 L-21.4,-17.0 L-20.1,-15.1 L-18.6,-13.3 L-17.1,-11.6 L-17.4,-9.8 L-19.7,-9.6 L-21.9,-9.0 L-23.4,-7.3 L-24.2,-5.2 L-25.4,-3.2 L-26.9,-1.5 L-28.8,-0.0 L-29.6,2.0 L-28.6,4.1 L-27.6,6.2 L-28.0,8.2 L-30.1,9.2 L-30.8,11.3 L-30.3,13.5 L-28.8,15.0 L-30.0,16.9 L-30.9,19.0 L-29.5,20.4 L-28.0,21.4 L-27.7,23.7 L-28.5,25.8 L-27.5,27.5 L-27.8,29.4 L-28.1,31.7 L-29.4,33.5 L-28.9,35.8 L-29.1,37.7 L-26.9,37.9 L-24.7,38.0 L-25.0,39.9 L-24.6,41.2 L-23.0,41.1 L-21.8,39.4 L-22.8,37.3 L-24.5,35.8 L-23.9,33.6 L-23.7,31.4 L-24.4,29.3 L-26.4,28.2 L-28.2,26.8 L-28.0,25.0 L-27.9,22.7 L-28.4,20.5 L-30.5,20.2 L-29.4,19.3 L-27.2,19.8 L-25.8,21.7 L-25.1,23.9 L-24.4,26.0 L-23.1,28.0 L-21.2,29.2 L-19.2,30.3 L-17.2,31.5 L-15.2,32.7 L-13.2,33.8 L-11.2,35.0 L-9.9,36.9 L-8.1,38.3 L-8.0,40.1 L-9.0,42.2 L-10.7,43.7 L-9.0,42.9 L-7.2,42.3 L-5.8,43.4 L-7.6,43.3 L-6.4,44.0 L-6.2,42.4 L-8.2,41.5 L-7.6,39.3 L-6.9,37.1 L-5.7,35.1 L-4.2,33.4 L-2.4,32.0 L-0.1,31.4 L2.1,31.8 L4.4,32.1 L6.7,32.5 L7.8,33.9 L8.4,35.7 L7.4,37.5 L9.4,37.4 L11.4,36.9 L12.2,34.9 L12.4,32.8 L11.5,30.7 L10.6,28.6 L9.3,26.8 L10.5,26.5 L12.3,25.7 L12.7,23.7 L14.4,22.8 L16.0,21.5 L16.4,23.0 L16.7,24.8 L19.0,25.3 L21.3,25.3 L23.0,24.0 L22.0,21.9 L20.4,20.5 L19.6,18.7 L21.3,17.4 L22.9,18.6 L23.6,16.7 L22.1,15.3 L21.2,13.6 L22.7,12.0"
        fill="none"
        stroke="currentColor"
        stroke-opacity="0.18"
        stroke-width="2"
        stroke-linecap="round"
        stroke-linejoin="round"
        vector-effect="non-scaling-stroke"/>
</svg>
