<?xml version="1.0" encoding="UTF-8"?>
<svg xmlns="http://www.w3.org/2000/svg"
     viewBox="-50.0 -50.0 100.0 100.0"
     role="img"
     aria-label="Dubai Marathon 2025 route">
  <title>Dubai Marathon 2025 route</title>
  <desc>Course route polyline, normalized for abstract display. Source page: https://www.goandrace.com/en/map/2025/dubai-marathon-2025-dubai-course-map-1.php</desc>
  <path d="M1.7,8.3 L0.4,7.3 L-0.9,6.9 L-2.0,8.1 L-3.1,9.3 L-4.1,10.5 L-5.2,11.7 L-6.3,12.9 L-7.3,14.2 L-8.4,15.4 L-9.5,16.6 L-10.5,17.8 L-11.6,19.0 L-12.6,20.3 L-13.7,21.5 L-14.8,22.7 L-15.9,23.9 L-16.9,25.1 L-18.0,26.3 L-19.1,27.6 L-20.1,28.8 L-21.2,30.0 L-22.3,31.2 L-23.3,32.5 L-24.3,33.7 L-25.4,34.9 L-26.5,36.1 L-27.6,37.3 L-28.6,38.5 L-29.7,39.8 L-30.8,41.0 L-31.8,42.2 L-32.9,43.4 L-33.7,44.0 L-32.6,42.8 L-31.5,41.6 L-30.4,40.4 L-29.4,39.1 L-28.4,37.9 L-27.3,36.7 L-26.2,35.5 L-25.1,34.3 L-24.0,33.1 L-23.0,31.8 L-21.9,30.6 L-20.8,29.4 L-19.8,28.2 L-18.7,26.9 L-17.7,25.7 L-16.6,24.5 L-15.5,23.3 L-14.4,22.1 L-13.4,20.9 L-12.3,19.7 L-11.2,18.4 L-10.2,17.2 L-9.1,16.0 L-8.0,14.8 L-7.0,13.6 L-5.9,12.3 L-4.8,11.1 L-3.8,9.9 L-2.7,8.7 L-1.7,7.4 L-0.9,6.0 L-1.0,4.4 L-1.0,2.8 L-0.3,1.4 L0.7,0.1 L1.7,-1.1 L2.7,-2.4 L3.7,-3.7 L4.7,-5.0 L5.7,-6.3 L6.7,-7.5 L7.7,-8.8 L8.7,-10.1 L9.7,-11.4 L10.7,-12.6 L11.7,-13.9 L12.7,-15.2 L13.7,-16.5 L14.7,-17.7 L15.6,-19.0 L16.7,-20.3 L17.7,-21.6 L18.6,-22.9 L19.6,-24.1 L20.6,-25.5 L21.5,-26.8 L22.4,-28.1 L23.4,-29.4 L24.3,-30.8 L25.2,-32.1 L26.2,-33.4 L27.1,-34.7 L28.0,-36.1 L28.9,-37.4 L29.8,-38.7 L30.8,-40.1 L31.7,-41.4 L32.7,-42.7 L33.6,-44.0 L32.8,-42.7 L31.9,-41.4 L30.9,-40.0 L30.0,-38.7 L29.1,-37.4 L28.2,-36.0 L27.2,-34.7 L26.3,-33.4 L25.4,-32.1 L24.4,-30.7 L23.5,-29.4 L22.6,-28.1 L21.6,-26.8 L20.7,-25.5 L19.8,-24.1 L18.8,-22.8 L17.8,-21.6 L16.8,-20.3 L15.8,-19.0 L14.8,-17.7 L13.8,-16.5 L12.8,-15.2 L11.8,-13.9 L10.8,-12.6 L9.8,-11.3 L8.8,-10.1 L7.8,-8.8 L6.8,-7.5 L5.8,-6.2 L4.9,-4.9 L3.9,-3.7 L2.9,-2.4 L1.9,-1.1 L0.9,0.2 L-0.1,1.5 L-0.9,2.8 L-0.8,4.5 L-0.8,6.0 L-0.9,4.4 L-1.0,2.8 L-0.2,1.4 L0.8,0.1 L1.8,-1.2 L2.8,-2.4 L3.8,-3.7 L4.7,-5.0 L5.7,-6.3 L6.7,-7.6 L7.7,-8.8 L8.7,-10.1 L9.7,-11.4 L10.7,-12.7 L11.7,-14.0 L12.7,-15.2 L13.7,-16.5 L14.7,-17.8 L15.7,-19.1 L16.7,-20.3 L17.7,-21.6 L18.7,-22.9 L19.6,-24.2 L20.6,-25.5 L21.5,-26.8 L22.5,-28.1 L23.4,-29.5 L24.3,-30.8 L25.3,-32.1 L26.2,-33.4 L27.1,-34.8 L28.1,-36.1 L29.0,-37.4 L29.9,-38.8 L30.8,-40.1 L31.8,-41.4 L32.7,-42.7 L33.7,-44.0 L32.8,-42.6 L31.8,-41.3 L30.9,-40.0 L30.0,-38.6 L29.0,-37.3 L28.1,-36.0 L27.2,-34.6 L26.3,-33.3 L25.4,-32.0 L24.4,-30.7 L23.5,-29.4 L22.5,-28.0 L21.6,-26.7 L20.7,-25.4 L19.7,-24.1 L18.7,-22.8 L17.8,-21.5 L16.8,-20.2 L15.8,-19.0 L14.8,-17.7 L13.8,-16.4 L12.8,-15.1 L11.8,-13.8 L10.8,-12.6 L9.8,-11.3 L8.8,-10.0 L7.8,-8.7 L6.8,-7.5 L5.8,-6.2 L4.8,-4.9 L3.8,-3.6 L2.9,-2.3 L1.9,-1.0 L0.9,0.2 L-0.1,1.5 L-0.9,2.9 L-0.8,4.5 L-0.5,6.1 L0.7,7.2 L1.9,8.2 L3.2,9.2"
        fill="none"
        stroke="currentColor"
        stroke-opacity="0.18"
        stroke-width="2"
        stroke-linecap="round"
        stroke-linejoin="round"
        vector-effect="non-scaling-stroke"/>
</svg>
