<?xml version="1.0" encoding="UTF-8"?>
<svg xmlns="http://www.w3.org/2000/svg"
     viewBox="-50.0 -50.0 100.0 100.0"
     role="img"
     aria-label="Irish Life Dublin Marathon 2025 route">
  <title>Irish Life Dublin Marathon 2025 route</title>
  <desc>Course route polyline, normalized for abstract display. Source page: https://www.goandrace.com/en/map/2025/irish-life-dublin-marathon-2025-course-map-1.php</desc>
  <path d="M17.7,1.6 L16.8,0.2 L15.4,-0.5 L13.9,-1.2 L12.2,-1.4 L10.6,-1.5 L9.1,-2.1 L7.9,-3.0 L8.0,-4.6 L8.3,-6.2 L6.9,-6.8 L5.8,-7.8 L6.8,-8.5 L8.2,-8.6 L6.8,-9.1 L5.2,-9.4 L3.6,-9.9 L2.4,-10.5 L2.6,-12.2 L2.6,-13.8 L1.6,-15.1 L0.5,-16.2 L-1.0,-16.8 L-2.3,-17.8 L-3.6,-18.3 L-4.7,-17.1 L-5.8,-15.9 L-7.1,-15.3 L-8.5,-16.2 L-9.1,-17.7 L-9.5,-19.3 L-10.8,-19.6 L-11.7,-19.2 L-11.3,-17.6 L-11.5,-16.0 L-12.6,-16.0 L-14.0,-17.0 L-15.3,-17.9 L-16.7,-18.9 L-18.0,-19.8 L-19.4,-20.8 L-20.7,-21.7 L-22.1,-22.7 L-23.4,-23.6 L-24.8,-24.6 L-26.2,-25.5 L-27.5,-26.5 L-28.9,-27.4 L-30.2,-28.4 L-31.6,-29.3 L-32.9,-30.3 L-34.3,-31.2 L-35.7,-32.1 L-37.2,-32.8 L-38.8,-33.2 L-40.3,-33.7 L-41.9,-34.2 L-43.0,-34.6 L-43.4,-33.0 L-43.6,-31.4 L-44.0,-29.8 L-43.8,-28.1 L-43.5,-26.5 L-43.0,-25.0 L-42.1,-23.6 L-40.8,-22.5 L-40.0,-21.1 L-39.0,-21.2 L-37.6,-22.2 L-36.2,-22.6 L-36.1,-21.7 L-35.5,-20.2 L-35.6,-18.6 L-34.6,-17.6 L-34.2,-16.0 L-33.1,-15.3 L-31.7,-15.0 L-30.2,-14.3 L-29.9,-12.9 L-29.0,-11.6 L-28.5,-10.1 L-30.0,-10.4 L-31.4,-11.3 L-33.0,-11.3 L-33.1,-10.3 L-31.8,-9.2 L-30.5,-8.4 L-29.1,-7.5 L-27.5,-6.9 L-26.0,-6.4 L-24.5,-5.8 L-22.8,-5.6 L-21.3,-5.2 L-19.6,-5.1 L-18.0,-5.3 L-16.4,-5.6 L-14.8,-5.9 L-13.1,-5.7 L-12.0,-5.1 L-11.9,-3.4 L-10.6,-2.9 L-9.0,-2.6 L-7.4,-2.3 L-7.1,-0.7 L-5.9,0.3 L-4.4,0.9 L-3.2,1.9 L-3.2,3.2 L-4.4,4.3 L-5.8,5.2 L-7.2,6.0 L-8.8,6.6 L-10.3,7.2 L-11.9,7.7 L-13.4,8.3 L-15.0,8.9 L-16.5,9.6 L-17.8,10.5 L-19.5,10.7 L-21.1,10.9 L-22.7,11.3 L-23.9,12.3 L-24.8,13.7 L-25.5,15.2 L-26.0,16.8 L-25.6,18.0 L-23.9,18.0 L-22.3,18.1 L-20.6,18.4 L-19.0,18.5 L-17.3,18.7 L-15.9,19.5 L-14.5,20.4 L-13.0,21.2 L-11.5,21.7 L-9.9,22.1 L-8.3,22.5 L-8.0,23.4 L-9.1,24.6 L-8.7,26.2 L-8.2,27.8 L-7.5,29.3 L-7.1,30.8 L-6.2,32.2 L-5.1,31.5 L-3.9,30.3 L-2.8,29.1 L-1.6,27.9 L-0.5,26.7 L0.7,25.6 L2.1,24.7 L3.6,24.0 L5.1,23.4 L6.7,23.0 L7.3,24.3 L8.3,25.5 L9.2,26.9 L10.4,27.4 L11.9,26.9 L13.4,26.1 L14.8,25.6 L16.3,26.0 L17.9,26.4 L19.5,26.2 L20.9,25.4 L21.7,24.0 L22.0,22.4 L22.7,20.9 L23.3,19.4 L23.8,17.8 L25.0,16.7 L26.1,17.7 L27.4,18.7 L27.3,20.3 L27.0,21.9 L27.2,23.5 L27.6,25.1 L28.1,26.7 L28.1,28.4 L28.8,29.8 L29.8,31.1 L31.2,31.8 L32.8,32.2 L34.2,33.1 L35.6,33.9 L37.0,34.6 L38.5,34.5 L39.9,33.6 L41.3,32.7 L42.6,31.7 L44.0,30.8 L43.0,29.6 L41.9,28.3 L40.8,27.1 L39.5,26.0 L38.3,24.9 L37.3,23.6 L36.6,22.1 L36.4,20.9 L37.7,19.8 L38.9,18.6 L40.1,17.5 L41.5,16.7 L41.0,15.6 L39.9,14.5 L38.8,13.2 L37.7,12.0 L36.6,10.8 L35.4,9.6 L34.5,8.2 L33.0,7.5 L31.5,6.8 L30.4,5.7 L29.4,4.4 L28.6,2.9 L28.0,1.4 L27.3,-0.1 L26.2,-1.3 L25.1,-0.4 L23.9,-0.9"
        fill="none"
        stroke="currentColor"
        stroke-opacity="0.18"
        stroke-width="2"
        stroke-linecap="round"
        stroke-linejoin="round"
        vector-effect="non-scaling-stroke"/>
</svg>
