<?xml version="1.0" encoding="UTF-8"?>
<svg xmlns="http://www.w3.org/2000/svg"
     viewBox="-50.0 -50.0 100.0 100.0"
     role="img"
     aria-label="Honolulu Marathon 2025 route">
  <title>Honolulu Marathon 2025 route</title>
  <desc>Course route polyline, normalized for abstract display. Source page: https://www.goandrace.com/en/map/2025/honolulu-marathon-2025-honolulu-course-map-1.php</desc>
  <path d="M-36.5,-5.5 L-37.5,-5.7 L-38.4,-6.2 L-39.3,-6.8 L-40.2,-7.2 L-41.2,-7.7 L-42.1,-8.2 L-42.8,-8.9 L-43.3,-9.8 L-43.4,-10.8 L-43.5,-11.9 L-43.3,-12.9 L-43.3,-13.9 L-43.9,-14.7 L-44.0,-15.7 L-43.2,-16.2 L-42.6,-15.4 L-42.0,-14.6 L-41.4,-13.8 L-40.5,-13.2 L-39.6,-12.7 L-39.0,-11.9 L-38.6,-10.9 L-38.0,-10.1 L-37.4,-9.3 L-36.7,-8.5 L-35.8,-8.0 L-34.8,-7.5 L-34.1,-7.0 L-34.5,-6.0 L-34.9,-5.1 L-34.2,-4.5 L-33.2,-4.2 L-32.2,-3.9 L-31.2,-3.6 L-30.7,-2.8 L-30.2,-1.9 L-29.5,-1.1 L-28.5,-1.1 L-27.5,-1.5 L-26.6,-1.5 L-26.0,-0.6 L-25.6,0.3 L-25.1,1.2 L-24.5,2.1 L-23.8,2.8 L-23.0,3.6 L-22.3,4.3 L-21.7,5.2 L-21.3,6.1 L-20.8,7.0 L-20.1,7.8 L-19.1,8.0 L-18.1,8.1 L-17.1,8.3 L-17.3,9.3 L-17.9,10.2 L-18.4,11.1 L-18.6,12.0 L-18.4,13.1 L-18.2,14.0 L-17.6,14.8 L-16.7,15.4 L-15.8,15.7 L-14.7,15.8 L-13.7,16.0 L-12.7,16.1 L-11.7,16.1 L-10.7,15.7 L-9.7,15.3 L-8.8,14.9 L-7.9,14.4 L-7.0,13.9 L-6.5,13.1 L-6.3,12.1 L-6.6,11.1 L-7.1,10.2 L-7.8,9.4 L-7.6,8.6 L-7.1,7.7 L-6.6,6.8 L-5.7,7.3 L-4.8,7.8 L-3.8,8.3 L-2.9,8.5 L-2.0,7.9 L-1.3,7.1 L-0.6,6.4 L-0.2,5.4 L0.1,4.4 L0.2,3.4 L0.5,2.6 L1.6,2.7 L2.6,2.8 L3.6,3.0 L4.7,3.1 L5.7,3.2 L6.7,3.4 L7.7,3.6 L8.8,3.8 L9.8,4.0 L10.8,4.0 L11.8,3.9 L12.9,3.8 L13.9,3.6 L14.9,3.4 L15.9,3.1 L16.9,2.9 L18.0,2.7 L19.0,2.6 L20.0,2.4 L21.0,2.1 L22.0,1.8 L23.0,1.5 L24.0,1.3 L25.1,1.2 L26.1,1.0 L27.1,0.7 L28.1,0.4 L29.1,0.2 L30.1,-0.0 L31.0,-0.5 L31.9,-1.0 L32.8,-1.5 L33.8,-1.8 L34.9,-2.0 L35.9,-2.0 L36.9,-1.7 L37.7,-1.2 L38.4,-2.0 L39.1,-2.8 L39.7,-3.6 L40.5,-4.2 L40.9,-5.2 L41.3,-6.2 L42.2,-6.6 L43.0,-6.1 L43.2,-5.1 L43.3,-4.0 L43.8,-3.1 L44.0,-2.3 L43.1,-1.8 L42.1,-1.4 L41.2,-1.0 L40.2,-0.7 L39.1,-0.5 L38.4,-0.4 L37.6,-1.0 L36.7,-1.6 L35.7,-2.0 L34.7,-1.9 L33.7,-1.7 L32.7,-1.3 L31.8,-0.8 L30.9,-0.3 L30.0,0.1 L28.9,0.3 L27.9,0.6 L26.9,0.8 L25.9,1.1 L24.9,1.3 L23.9,1.4 L22.9,1.7 L21.9,2.0 L20.9,2.3 L19.9,2.5 L18.8,2.7 L17.8,2.8 L16.8,3.0 L15.8,3.3 L14.8,3.5 L13.8,3.7 L12.7,3.9 L11.7,4.0 L10.7,4.1 L9.6,4.0 L8.6,3.8 L7.6,3.6 L6.6,3.4 L5.5,3.3 L4.5,3.2 L3.5,3.1 L2.4,3.0 L1.4,2.9 L0.7,3.1 L1.2,4.0 L1.7,5.0 L2.2,5.9 L2.7,6.7 L3.3,7.6 L3.1,8.4 L2.5,9.3 L1.9,10.1 L1.1,10.8 L0.2,11.4 L-0.6,12.0 L-1.5,12.5 L-2.4,13.0 L-3.4,13.4 L-4.4,13.6 L-5.4,13.9 L-6.4,14.1 L-7.4,14.3 L-8.4,14.6 L-9.3,15.1 L-10.3,15.6 L-11.2,16.0 L-12.2,16.2 L-13.2,16.0 L-14.3,15.9 L-15.3,15.8 L-16.3,15.7 L-17.2,15.1 L-18.0,14.5 L-18.4,13.5 L-19.1,12.8 L-19.6,11.9 L-19.9,10.9 L-20.1,10.0 L-20.3,9.0"
        fill="none"
        stroke="currentColor"
        stroke-opacity="0.18"
        stroke-width="2"
        stroke-linecap="round"
        stroke-linejoin="round"
        vector-effect="non-scaling-stroke"/>
</svg>
