<?xml version="1.0" encoding="UTF-8"?>
<svg xmlns="http://www.w3.org/2000/svg"
     viewBox="-50.0 -50.0 100.0 100.0"
     role="img"
     aria-label="Istanbul Marathon 2025 route">
  <title>Istanbul Marathon 2025 route</title>
  <desc>Course route polyline, normalized for abstract display. Source page: https://www.goandrace.com/en/map/2025/istanbul-marathon-2025-istanbul-course-map-1.php</desc>
  <path d="M44.0,-12.8 L43.4,-13.7 L42.8,-14.5 L42.2,-15.3 L41.5,-16.1 L40.9,-16.9 L40.3,-17.7 L39.6,-18.5 L39.0,-19.3 L38.3,-20.1 L37.7,-20.9 L37.1,-21.7 L36.4,-22.5 L35.6,-23.2 L34.8,-23.8 L34.0,-24.5 L33.3,-25.2 L32.4,-24.9 L31.6,-24.4 L30.7,-23.8 L29.8,-23.3 L28.9,-22.8 L28.6,-22.0 L28.5,-21.0 L28.3,-20.0 L28.2,-19.0 L28.0,-18.0 L27.9,-16.9 L27.7,-15.9 L26.7,-15.6 L25.7,-15.3 L24.8,-15.0 L24.0,-14.3 L23.1,-13.9 L22.5,-13.1 L22.0,-12.2 L21.4,-11.4 L20.8,-10.5 L20.1,-9.8 L19.6,-8.9 L18.9,-8.1 L18.0,-7.7 L17.0,-7.3 L16.1,-6.9 L15.2,-6.4 L14.5,-5.7 L13.7,-5.0 L13.4,-4.0 L12.9,-3.1 L12.4,-2.2 L12.2,-1.3 L13.2,-1.1 L14.1,-0.6 L15.1,-0.4 L16.1,-0.4 L17.1,-0.6 L18.1,-0.7 L18.9,0.0 L19.2,1.0 L19.2,2.0 L19.1,3.0 L18.8,4.0 L18.5,5.0 L17.9,5.8 L17.1,6.5 L16.5,7.3 L15.6,7.8 L14.6,7.9 L13.5,7.8 L12.5,7.9 L11.5,8.0 L10.5,7.7 L9.5,7.6 L8.5,7.5 L7.5,7.4 L6.5,7.1 L5.4,7.0 L4.4,7.2 L3.5,7.7 L2.6,8.1 L1.6,8.2 L0.6,8.4 L-0.5,8.4 L-1.4,8.1 L-2.4,7.8 L-3.4,8.2 L-4.2,8.8 L-4.9,9.6 L-5.2,10.5 L-5.6,11.5 L-6.3,12.2 L-7.1,12.9 L-7.7,13.7 L-8.4,14.5 L-9.1,15.2 L-9.9,15.9 L-10.9,16.1 L-11.9,16.1 L-12.9,16.0 L-13.9,16.0 L-14.9,16.3 L-15.6,17.0 L-15.7,18.0 L-15.9,19.0 L-16.6,19.8 L-17.5,20.3 L-18.4,20.8 L-19.4,21.1 L-20.4,21.0 L-21.2,20.5 L-22.1,20.0 L-23.1,19.9 L-24.1,20.3 L-25.0,20.8 L-25.8,21.4 L-26.6,21.9 L-27.6,22.4 L-28.4,22.9 L-29.1,23.7 L-30.1,24.1 L-31.0,24.5 L-32.0,24.2 L-33.0,23.9 L-34.0,23.7 L-35.0,23.6 L-36.0,23.4 L-37.0,23.3 L-38.0,23.1 L-39.1,23.0 L-40.1,23.0 L-41.1,23.2 L-42.0,23.5 L-42.9,24.1 L-43.6,24.8 L-44.0,25.2 L-43.4,24.4 L-42.6,23.8 L-41.7,23.3 L-40.7,23.0 L-39.7,22.8 L-38.7,22.9 L-37.6,23.1 L-36.6,23.2 L-35.6,23.4 L-34.6,23.6 L-33.6,23.7 L-32.6,24.0 L-31.6,24.3 L-30.6,24.3 L-29.7,23.9 L-28.9,23.3 L-28.2,22.6 L-27.2,22.1 L-26.3,21.7 L-25.5,21.0 L-24.6,20.5 L-23.7,20.0 L-22.7,19.8 L-21.8,20.1 L-20.9,20.7 L-20.0,21.1 L-19.0,21.0 L-18.1,20.5 L-17.1,20.0 L-16.3,19.4 L-15.8,18.6 L-15.8,17.5 L-15.4,16.6 L-14.6,16.0 L-13.6,15.9 L-12.5,16.0 L-11.5,16.0 L-10.5,16.0 L-9.6,15.6 L-8.8,14.8 L-8.1,14.1 L-7.5,13.3 L-6.8,12.5 L-6.0,11.9 L-5.5,11.0 L-5.2,10.0 L-4.7,9.1 L-4.0,8.4 L-3.1,7.9 L-2.1,7.7 L-1.1,8.0 L-0.1,8.3 L0.9,8.2 L1.9,8.0 L2.9,7.7 L3.8,7.4 L4.8,6.9 L5.8,6.8 L6.8,7.0 L7.8,7.2 L8.8,7.3 L9.8,7.3 L10.9,7.5 L11.8,7.8 L12.8,7.8 L13.9,7.8 L14.9,7.8 L15.9,7.6 L16.7,7.0 L17.3,6.2 L18.1,5.5 L18.5,4.6 L18.9,3.6 L19.1,2.7 L19.2,1.6 L19.1,0.6 L18.6,-0.3 L18.0,-0.1 L17.2,0.6 L16.4,1.1 L15.8,1.8 L15.4,2.7 L15.2,3.7 L14.8,4.6 L14.1,5.3"
        fill="none"
        stroke="currentColor"
        stroke-opacity="0.18"
        stroke-width="2"
        stroke-linecap="round"
        stroke-linejoin="round"
        vector-effect="non-scaling-stroke"/>
</svg>
