<?xml version="1.0" encoding="UTF-8"?>
<svg xmlns="http://www.w3.org/2000/svg"
     viewBox="-50.0 -50.0 100.0 100.0"
     role="img"
     aria-label="Los Angeles Marathon 2025 route">
  <title>Los Angeles Marathon 2025 route</title>
  <desc>Course route polyline, normalized for abstract display. Source page: https://www.goandrace.com/en/map/2025/los-angeles-marathon-2025-los-angeles-course-map-1.php</desc>
  <path d="M42.1,-0.1 L41.9,0.7 L41.2,0.9 L40.4,1.0 L39.6,0.9 L38.9,1.0 L39.0,1.7 L39.1,2.5 L39.3,3.2 L39.5,4.0 L39.9,4.6 L40.5,5.2 L41.0,5.7 L41.5,6.3 L42.2,6.7 L42.8,7.2 L43.2,6.5 L43.5,5.8 L44.0,5.7 L43.8,6.3 L43.6,7.0 L43.0,7.4 L42.6,8.1 L42.1,8.7 L41.6,9.3 L41.5,9.9 L42.0,10.4 L41.6,11.0 L41.2,11.7 L40.7,12.2 L40.4,11.7 L40.6,11.1 L40.0,10.6 L39.7,10.1 L40.2,9.4 L40.3,8.9 L39.7,8.4 L40.2,7.8 L40.4,7.2 L39.8,6.6 L39.3,6.0 L38.9,5.4 L38.5,4.7 L38.0,4.1 L37.5,3.5 L37.3,3.0 L36.7,2.6 L36.0,2.3 L35.3,1.9 L35.0,1.3 L34.9,0.6 L34.9,-0.2 L35.0,-1.0 L34.7,-1.5 L33.9,-1.3 L33.2,-1.6 L32.6,-2.0 L31.9,-2.4 L31.4,-3.0 L30.8,-3.5 L30.3,-4.1 L30.0,-4.8 L29.7,-5.5 L29.4,-6.3 L29.1,-7.0 L28.5,-7.4 L28.0,-8.0 L27.5,-8.6 L26.9,-9.1 L26.4,-9.7 L25.9,-10.3 L25.3,-10.7 L24.6,-11.2 L24.0,-11.7 L23.4,-12.2 L22.6,-12.2 L21.9,-12.2 L21.1,-12.2 L20.3,-12.2 L19.5,-12.2 L18.7,-12.2 L18.0,-12.2 L17.2,-12.2 L16.4,-12.2 L15.6,-12.2 L14.9,-12.2 L14.1,-12.2 L13.3,-12.2 L12.5,-12.2 L11.7,-12.2 L11.0,-12.2 L10.2,-12.2 L9.4,-12.2 L8.6,-12.1 L7.8,-12.1 L7.1,-12.1 L6.3,-12.1 L5.5,-12.1 L5.2,-11.6 L5.2,-10.9 L4.8,-10.5 L4.0,-10.5 L3.2,-10.5 L2.5,-10.5 L1.7,-10.5 L0.9,-10.5 L0.1,-10.6 L-0.7,-10.6 L-1.4,-10.6 L-2.2,-10.6 L-3.0,-10.5 L-3.8,-10.5 L-4.5,-10.5 L-5.2,-10.1 L-5.9,-9.7 L-6.5,-9.3 L-7.2,-9.1 L-8.0,-8.8 L-8.6,-8.3 L-9.2,-7.9 L-9.9,-7.6 L-10.6,-7.2 L-11.2,-7.0 L-11.2,-6.3 L-11.1,-5.5 L-10.7,-4.8 L-11.1,-4.3 L-11.7,-3.8 L-12.3,-3.3 L-12.8,-2.7 L-12.8,-2.0 L-12.8,-1.2 L-12.8,-0.4 L-12.8,0.4 L-12.8,1.1 L-13.6,1.1 L-14.4,1.1 L-15.1,1.1 L-15.9,1.1 L-16.7,1.2 L-17.5,1.3 L-18.1,1.7 L-17.8,2.3 L-17.3,2.9 L-17.1,3.4 L-17.9,3.4 L-18.7,3.4 L-19.5,3.4 L-20.2,3.4 L-20.8,3.9 L-21.4,4.4 L-22.1,4.8 L-22.7,5.2 L-23.3,5.7 L-23.9,6.3 L-24.5,6.8 L-25.1,7.3 L-25.7,7.7 L-26.3,8.2 L-26.9,8.7 L-27.5,9.2 L-28.1,9.7 L-28.7,10.2 L-29.3,10.7 L-30.0,11.0 L-30.7,11.3 L-31.5,11.5 L-32.2,11.8 L-33.0,12.0 L-33.5,11.5 L-33.9,10.9 L-34.4,10.3 L-34.8,9.6 L-35.3,9.0 L-35.7,8.4 L-36.3,8.6 L-37.1,8.9 L-37.8,9.2 L-38.3,9.8 L-38.5,10.5 L-39.0,10.0 L-39.5,9.3 L-40.3,9.2 L-41.0,9.4 L-41.8,9.5 L-42.5,9.7 L-43.3,9.9 L-44.0,10.2 L-43.2,10.0 L-42.5,9.8 L-41.8,9.5 L-41.0,9.4 L-40.3,9.3 L-39.5,9.4 L-39.1,10.1 L-38.6,10.6 L-38.3,10.0 L-37.9,9.3 L-37.1,9.0 L-36.4,8.8 L-35.8,8.4 L-35.3,8.9 L-34.8,9.6 L-34.4,10.2 L-33.9,10.9 L-33.5,11.5 L-33.0,12.0 L-32.3,11.8 L-31.6,11.5 L-30.8,11.4 L-30.1,11.1 L-29.4,10.8 L-28.8,10.4 L-28.2,9.9 L-27.5,9.4 L-26.9,8.9 L-26.3,8.4 L-25.7,7.9 L-25.1,7.4 L-24.5,6.9"
        fill="none"
        stroke="currentColor"
        stroke-opacity="0.18"
        stroke-width="2"
        stroke-linecap="round"
        stroke-linejoin="round"
        vector-effect="non-scaling-stroke"/>
</svg>
