<?xml version="1.0" encoding="UTF-8"?>
<svg xmlns="http://www.w3.org/2000/svg"
     viewBox="-50.0 -50.0 100.0 100.0"
     role="img"
     aria-label="TCS London Marathon 2025 route">
  <title>TCS London Marathon 2025 route</title>
  <desc>Course route polyline, normalized for abstract display. Source page: https://www.goandrace.com/en/map/2025/tcs-london-marathon-2025-course-map-1.php</desc>
  <path d="M21.6,13.8 L22.8,13.5 L24.0,13.3 L25.2,13.1 L26.4,12.8 L27.4,12.4 L28.6,12.2 L29.8,12.2 L31.0,12.5 L32.1,12.7 L33.1,12.4 L33.6,11.3 L34.6,10.6 L35.5,9.9 L36.7,9.6 L37.8,9.3 L39.0,8.9 L40.1,8.6 L41.3,8.2 L42.4,7.7 L43.4,7.1 L43.6,6.0 L43.9,4.8 L44.0,3.6 L43.7,2.5 L43.4,1.3 L43.0,0.2 L42.5,-0.5 L41.4,-0.1 L40.2,0.1 L39.0,0.4 L37.9,0.4 L36.7,0.3 L35.6,0.7 L34.5,1.2 L33.6,2.0 L32.5,2.6 L31.4,3.1 L30.3,3.4 L29.1,3.7 L27.9,3.9 L26.7,4.1 L25.6,4.3 L24.5,4.5 L23.3,4.7 L22.1,4.7 L20.9,4.6 L19.8,4.9 L18.6,5.4 L17.6,5.9 L16.5,6.5 L15.4,6.9 L14.3,7.5 L13.2,8.1 L12.6,7.1 L12.3,7.4 L11.5,8.0 L10.3,8.0 L9.1,8.0 L7.9,8.2 L6.7,8.4 L5.6,8.0 L4.5,7.5 L3.5,6.8 L2.6,6.1 L1.8,5.2 L1.0,4.3 L0.1,3.5 L-0.9,2.7 L-1.7,1.9 L-2.6,1.0 L-3.4,0.2 L-3.1,-0.7 L-3.0,-1.6 L-3.3,-2.6 L-3.2,-3.8 L-2.5,-4.5 L-1.5,-3.9 L-1.2,-2.7 L-0.4,-2.7 L0.5,-3.5 L1.2,-4.5 L1.2,-5.7 L1.1,-6.9 L0.9,-8.0 L-0.0,-8.8 L-1.2,-8.9 L-2.4,-8.5 L-3.4,-7.9 L-4.3,-7.0 L-5.1,-6.2 L-6.0,-5.3 L-6.9,-4.6 L-7.8,-4.3 L-9.0,-4.1 L-10.2,-3.9 L-11.4,-3.6 L-12.5,-3.6 L-13.6,-4.0 L-14.6,-4.7 L-15.6,-5.4 L-16.5,-6.1 L-16.7,-7.1 L-16.3,-8.1 L-15.8,-9.3 L-15.5,-10.4 L-15.0,-11.1 L-13.9,-10.8 L-12.8,-11.2 L-11.6,-11.4 L-10.4,-11.5 L-9.2,-11.6 L-8.0,-11.7 L-6.8,-11.6 L-5.6,-11.7 L-4.4,-11.8 L-3.2,-12.0 L-2.0,-12.2 L-1.0,-12.0 L0.2,-11.8 L1.4,-11.4 L2.5,-11.0 L3.6,-11.3 L4.8,-11.4 L4.8,-10.4 L4.8,-9.3 L5.2,-8.5 L5.5,-7.3 L5.4,-6.1 L5.3,-4.9 L5.4,-3.7 L5.5,-2.5 L5.7,-1.3 L5.8,-0.2 L6.2,1.0 L6.9,1.9 L7.8,2.7 L8.8,3.4 L9.9,3.9 L10.8,3.6 L10.5,2.4 L10.3,1.3 L10.3,0.1 L10.4,-1.1 L10.5,-2.3 L10.7,-3.5 L10.7,-4.7 L9.6,-5.1 L8.4,-5.3 L7.2,-5.6 L6.2,-6.2 L5.7,-7.3 L6.5,-7.5 L7.7,-7.3 L8.7,-6.9 L9.1,-7.8 L8.2,-8.1 L7.0,-8.4 L7.8,-8.7 L9.0,-8.5 L10.2,-8.3 L11.2,-8.1 L11.9,-9.1 L12.4,-9.7 L12.8,-10.5 L12.0,-11.1 L10.8,-11.1 L9.6,-11.2 L8.4,-11.3 L7.2,-11.4 L6.1,-11.3 L5.2,-12.0 L4.4,-12.9 L3.4,-13.6 L2.2,-13.6 L1.0,-13.7 L-0.2,-13.8 L-1.3,-13.7 L-1.7,-12.6 L-2.6,-12.1 L-3.8,-11.8 L-5.0,-11.8 L-6.2,-11.7 L-7.4,-11.7 L-8.6,-11.7 L-9.8,-11.5 L-11.0,-11.4 L-12.2,-11.5 L-13.3,-11.0 L-14.5,-10.8 L-15.5,-11.5 L-16.6,-11.6 L-17.8,-11.6 L-18.9,-11.2 L-20.1,-11.4 L-21.2,-11.7 L-22.4,-12.1 L-23.5,-12.5 L-24.7,-12.7 L-25.9,-12.7 L-27.1,-12.7 L-28.3,-12.6 L-29.5,-12.6 L-30.7,-12.7 L-31.9,-12.6 L-33.1,-12.4 L-34.3,-12.0 L-35.3,-11.4 L-36.0,-10.4 L-36.5,-9.3 L-36.8,-8.1 L-37.0,-7.0 L-37.2,-5.8 L-38.4,-5.7 L-39.6,-5.9 L-40.8,-5.7 L-41.9,-5.5 L-43.1,-5.3 L-44.0,-5.9 L-43.4,-6.8"
        fill="none"
        stroke="currentColor"
        stroke-opacity="0.18"
        stroke-width="2"
        stroke-linecap="round"
        stroke-linejoin="round"
        vector-effect="non-scaling-stroke"/>
</svg>
