<?xml version="1.0" encoding="UTF-8"?>
<svg xmlns="http://www.w3.org/2000/svg"
     viewBox="-50.0 -50.0 100.0 100.0"
     role="img"
     aria-label="Tata Mumbai Marathon 2025 route">
  <title>Tata Mumbai Marathon 2025 route</title>
  <desc>Course route polyline, normalized for abstract display. Source page: https://www.goandrace.com/en/map/2025/tata-mumbai-marathon-2025-course-map-1.php</desc>
  <path d="M7.4,33.5 L7.3,34.7 L6.9,35.8 L6.4,36.9 L5.7,37.9 L4.9,38.8 L4.1,39.3 L4.0,40.5 L4.0,41.8 L4.0,43.0 L2.9,43.0 L3.0,41.8 L3.0,40.6 L3.0,39.4 L2.4,38.5 L1.2,38.3 L0.0,38.1 L-0.4,39.3 L-0.9,40.4 L-1.5,41.4 L-2.3,42.4 L-2.0,43.2 L-1.1,44.0 L-1.8,43.5 L-2.7,43.0 L-3.3,43.5 L-2.6,42.6 L-1.8,41.6 L-1.1,40.6 L-0.6,39.5 L-0.2,38.4 L0.1,37.2 L0.3,36.0 L0.3,34.7 L0.2,33.5 L-0.1,32.3 L-0.5,31.2 L-1.1,30.1 L-1.7,29.1 L-2.3,28.0 L-3.0,27.0 L-3.8,26.1 L-4.6,25.1 L-5.3,24.2 L-6.1,23.3 L-7.2,22.7 L-8.3,22.3 L-9.1,21.9 L-8.6,20.8 L-9.4,19.9 L-9.9,18.8 L-10.5,17.7 L-10.8,16.5 L-10.9,15.3 L-10.5,14.2 L-9.9,13.1 L-9.5,12.0 L-9.6,10.8 L-9.7,9.6 L-9.9,8.3 L-9.4,7.3 L-8.4,6.7 L-7.7,5.7 L-7.0,4.7 L-6.2,3.8 L-5.8,2.7 L-6.2,1.5 L-6.6,0.4 L-6.6,-0.8 L-6.5,-2.0 L-6.4,-3.3 L-6.2,-4.4 L-6.9,-5.4 L-7.6,-6.4 L-8.1,-7.5 L-8.1,-8.7 L-8.1,-9.9 L-7.5,-11.0 L-6.9,-12.0 L-6.5,-13.2 L-6.2,-14.4 L-5.7,-15.5 L-5.1,-16.5 L-4.8,-17.6 L-5.9,-17.9 L-7.1,-18.4 L-7.7,-19.4 L-7.6,-20.6 L-7.4,-21.8 L-7.1,-23.0 L-6.8,-24.2 L-6.6,-25.4 L-6.3,-26.6 L-6.0,-27.8 L-5.7,-28.9 L-5.4,-30.1 L-5.1,-31.3 L-4.8,-32.5 L-4.5,-33.7 L-4.2,-34.9 L-3.9,-36.0 L-3.3,-37.1 L-2.4,-37.9 L-1.3,-38.4 L-0.2,-39.0 L0.9,-39.5 L2.0,-40.0 L3.0,-40.7 L3.9,-41.6 L4.7,-42.5 L5.5,-43.4 L6.5,-44.0 L6.1,-43.8 L5.2,-43.0 L4.4,-42.1 L3.6,-41.2 L2.7,-40.3 L1.6,-39.8 L1.3,-39.5 L2.4,-40.1 L3.4,-40.8 L4.2,-41.7 L5.0,-42.6 L5.9,-43.5 L7.0,-43.8 L8.2,-43.6 L9.4,-43.5 L9.8,-42.4 L9.9,-41.2 L10.4,-40.1 L10.9,-39.0 L10.7,-37.9 L10.5,-36.7 L10.3,-35.5 L10.2,-34.2 L10.1,-33.0 L10.0,-31.8 L10.0,-30.6 L9.6,-29.5 L9.0,-28.4 L8.4,-27.3 L7.9,-26.2 L7.3,-25.1 L6.7,-24.1 L6.0,-23.1 L5.3,-22.1 L4.6,-21.1 L3.7,-20.3 L2.6,-19.7 L1.7,-19.0 L0.6,-18.3 L-0.4,-17.7 L-1.4,-17.1 L-2.2,-16.1 L-2.8,-15.0 L-3.3,-14.0 L-3.8,-12.8 L-4.4,-11.9 L-5.2,-10.9 L-5.4,-9.7 L-6.3,-10.3 L-6.8,-11.4 L-7.3,-11.1 L-7.9,-10.1 L-8.1,-8.9 L-8.1,-7.7 L-7.6,-6.6 L-6.9,-5.5 L-6.2,-4.5 L-5.5,-5.1 L-5.2,-5.5 L-5.8,-4.4 L-6.3,-3.3 L-6.4,-2.1 L-6.5,-0.9 L-6.5,0.3 L-6.1,1.5 L-5.7,2.6 L-6.0,3.8 L-6.8,4.7 L-7.5,5.7 L-8.2,6.7 L-9.2,7.2 L-9.8,8.2 L-9.7,9.4 L-9.5,10.6 L-9.4,11.9 L-9.8,13.0 L-10.4,14.1 L-10.8,15.2 L-10.8,16.4 L-10.5,17.6 L-9.9,18.7 L-9.3,19.8 L-8.6,20.7 L-9.0,21.7 L-8.3,22.2 L-7.1,22.6 L-6.1,23.2 L-5.2,24.1 L-4.5,25.1 L-3.7,26.0 L-3.0,27.0 L-2.2,27.9 L-1.6,29.0 L-1.0,30.0 L-0.4,31.1 L0.0,32.2 L0.3,33.4 L0.4,34.6 L0.4,35.9 L0.2,37.1 L0.2,38.1 L1.5,38.3 L2.7,38.5 L3.9,38.6 L4.3,37.8 L4.5,36.6 L4.4,35.4 L4.2,34.2"
        fill="none"
        stroke="currentColor"
        stroke-opacity="0.18"
        stroke-width="2"
        stroke-linecap="round"
        stroke-linejoin="round"
        vector-effect="non-scaling-stroke"/>
</svg>
