<?xml version="1.0" encoding="UTF-8"?>
<svg xmlns="http://www.w3.org/2000/svg"
     viewBox="-50.0 -50.0 100.0 100.0"
     role="img"
     aria-label="TCS New York City Marathon 2025 route">
  <title>TCS New York City Marathon 2025 route</title>
  <desc>Course route polyline, normalized for abstract display. Source page: https://www.goandrace.com/en/map/2025/tcs-new-york-city-marathon-2025-course-map-1.php</desc>
  <path d="M-21.2,44.0 L-20.5,43.7 L-19.8,43.5 L-19.2,43.2 L-18.5,42.9 L-17.8,42.6 L-17.2,42.3 L-16.5,42.0 L-15.8,41.7 L-15.2,41.5 L-14.5,41.2 L-13.8,40.9 L-13.2,40.6 L-12.5,40.3 L-11.9,40.0 L-11.5,39.3 L-11.1,38.7 L-10.7,38.2 L-11.2,37.8 L-11.8,37.4 L-11.9,36.8 L-11.7,36.1 L-11.5,35.4 L-11.3,34.7 L-11.0,34.0 L-10.8,33.3 L-10.6,32.6 L-10.4,32.0 L-10.2,31.3 L-10.0,30.6 L-9.8,29.9 L-9.4,29.2 L-8.9,28.7 L-8.5,28.1 L-8.1,27.6 L-7.6,27.0 L-7.2,26.4 L-6.7,25.9 L-6.3,25.3 L-5.8,24.7 L-5.4,24.1 L-4.9,23.6 L-4.5,23.0 L-4.0,22.4 L-3.6,21.9 L-3.1,21.3 L-2.7,20.7 L-2.2,20.2 L-1.8,19.6 L-1.3,19.0 L-0.9,18.5 L-0.4,17.9 L-0.0,17.3 L0.4,16.7 L0.8,16.1 L1.1,15.5 L1.5,14.8 L1.9,14.2 L2.3,13.6 L2.7,13.0 L3.0,12.3 L3.3,11.7 L3.6,11.0 L4.0,10.4 L4.3,9.7 L4.1,9.1 L4.4,8.8 L5.2,8.7 L5.9,8.6 L6.6,8.5 L7.3,8.4 L8.0,8.3 L8.7,8.2 L9.4,8.1 L10.2,8.0 L10.9,7.8 L11.5,7.7 L11.4,7.0 L11.3,6.3 L11.2,5.5 L11.1,4.8 L11.0,4.1 L10.9,3.4 L10.6,2.8 L10.1,2.2 L9.6,1.7 L9.2,1.1 L8.7,0.5 L8.7,-0.1 L8.8,-0.9 L9.1,-1.5 L9.4,-2.2 L9.7,-2.8 L10.2,-3.4 L10.7,-3.9 L11.1,-4.5 L11.6,-5.0 L12.0,-5.6 L12.5,-6.2 L12.8,-6.7 L12.5,-7.3 L12.2,-8.0 L12.0,-8.7 L12.0,-9.2 L12.6,-9.3 L12.6,-10.1 L12.4,-10.8 L12.3,-11.5 L12.2,-12.2 L12.3,-12.9 L12.5,-13.6 L12.7,-14.3 L12.4,-14.8 L12.1,-15.2 L12.2,-15.9 L12.4,-16.6 L13.0,-16.8 L13.7,-16.6 L14.4,-16.4 L15.1,-16.3 L15.6,-16.8 L16.0,-17.4 L15.7,-17.9 L15.1,-18.3 L14.5,-18.6 L13.8,-19.0 L13.2,-19.4 L12.6,-19.7 L11.9,-20.1 L11.3,-20.4 L10.7,-20.8 L10.1,-21.1 L9.4,-21.5 L9.2,-21.4 L9.7,-21.8 L10.0,-22.4 L10.4,-23.1 L10.7,-23.7 L11.1,-24.3 L11.4,-25.0 L11.8,-25.6 L12.1,-26.3 L12.5,-26.9 L12.8,-27.5 L13.2,-28.1 L13.5,-28.8 L13.9,-29.4 L14.2,-30.1 L14.6,-30.7 L14.9,-31.3 L15.3,-32.0 L15.6,-32.6 L16.0,-33.2 L16.3,-33.9 L16.7,-34.5 L17.0,-35.1 L17.4,-35.8 L17.7,-36.4 L18.1,-37.0 L18.4,-37.7 L18.8,-38.3 L19.1,-38.9 L19.7,-39.4 L20.3,-39.8 L20.8,-40.3 L21.2,-40.9 L20.7,-41.3 L20.8,-41.9 L20.7,-42.4 L20.5,-42.9 L20.6,-43.5 L20.2,-43.1 L19.7,-43.2 L19.1,-43.7 L18.5,-43.9 L17.8,-44.0 L17.3,-43.8 L16.9,-43.2 L16.6,-42.5 L16.2,-41.9 L15.9,-41.3 L15.5,-40.6 L15.0,-40.6 L14.6,-40.2 L14.5,-39.6 L14.7,-39.1 L14.3,-38.5 L14.0,-37.8 L13.6,-37.2 L13.3,-36.6 L12.9,-35.9 L12.6,-35.3 L12.2,-34.7 L11.9,-34.0 L11.5,-33.4 L11.2,-32.8 L10.8,-32.1 L10.5,-31.5 L10.1,-31.0 L9.7,-30.4 L9.0,-30.4 L8.5,-29.8 L8.1,-29.2 L7.8,-28.6 L7.7,-27.9 L7.2,-27.4 L7.2,-26.7 L6.8,-26.1 L6.4,-25.6 L5.9,-25.1 L5.9,-24.4 L5.9,-23.7 L5.4,-23.5 L4.8,-23.9 L4.2,-24.2 L3.5,-24.6 L3.6,-25.1 L4.0,-25.7 L4.5,-26.2 L4.8,-26.8"
        fill="none"
        stroke="currentColor"
        stroke-opacity="0.18"
        stroke-width="2"
        stroke-linecap="round"
        stroke-linejoin="round"
        vector-effect="non-scaling-stroke"/>
</svg>
