<?xml version="1.0" encoding="UTF-8"?>
<svg xmlns="http://www.w3.org/2000/svg"
     viewBox="-50.0 -50.0 100.0 100.0"
     role="img"
     aria-label="Osaka Marathon 2025 route">
  <title>Osaka Marathon 2025 route</title>
  <desc>Course route polyline, normalized for abstract display. Source page: https://www.goandrace.com/en/map/2025/osaka-marathon-2025-osaka-course-map-1.php</desc>
  <path d="M14.8,-14.1 L14.3,-16.2 L14.7,-18.2 L15.2,-19.9 L17.1,-20.9 L18.9,-21.8 L20.8,-22.8 L21.1,-24.5 L20.7,-26.6 L19.5,-27.8 L17.3,-27.9 L15.2,-28.1 L13.2,-27.5 L12.2,-28.4 L12.4,-30.5 L12.4,-32.6 L11.7,-34.6 L10.9,-36.5 L10.2,-38.5 L9.9,-40.6 L9.5,-42.5 L7.5,-43.3 L5.5,-44.0 L5.0,-42.4 L5.1,-40.3 L5.1,-38.1 L5.1,-36.0 L5.0,-33.9 L5.1,-31.8 L5.2,-29.7 L5.3,-27.6 L5.3,-25.4 L5.7,-23.4 L6.0,-21.4 L5.9,-19.2 L4.0,-19.3 L2.2,-20.4 L0.3,-21.1 L-1.9,-21.3 L-3.9,-21.7 L-4.8,-23.1 L-5.9,-24.0 L-8.1,-23.9 L-9.8,-23.4 L-9.2,-21.7 L-7.1,-21.8 L-5.0,-21.9 L-5.0,-19.8 L-5.1,-17.7 L-5.1,-15.6 L-5.2,-13.5 L-5.3,-11.3 L-5.4,-9.2 L-5.4,-7.1 L-5.5,-5.0 L-5.5,-2.9 L-5.6,-0.7 L-5.5,1.4 L-5.5,3.5 L-5.5,5.6 L-5.5,7.7 L-6.4,8.9 L-8.5,8.7 L-10.6,8.2 L-12.7,7.9 L-14.8,7.7 L-16.9,7.4 L-19.0,7.3 L-21.1,7.6 L-23.2,8.0 L-25.2,8.5 L-26.3,7.4 L-26.6,5.3 L-26.0,3.3 L-25.4,1.2 L-24.6,-0.7 L-24.6,-2.6 L-26.1,-3.9 L-27.0,-2.4 L-27.7,-0.4 L-29.0,1.2 L-30.5,2.8 L-31.9,4.4 L-33.3,5.9 L-34.7,7.5 L-36.6,8.5 L-38.5,9.4 L-40.4,10.3 L-38.6,9.6 L-36.7,8.6 L-34.8,7.7 L-33.4,6.1 L-31.9,4.6 L-30.5,3.0 L-29.1,1.4 L-27.7,-0.2 L-27.0,-2.2 L-26.1,-3.8 L-24.6,-2.5 L-24.8,-0.5 L-25.5,1.5 L-26.1,3.5 L-26.7,5.6 L-26.4,7.6 L-25.2,8.7 L-23.1,8.2 L-21.0,7.8 L-18.9,7.4 L-16.8,7.6 L-14.7,7.9 L-14.5,9.4 L-15.0,11.5 L-15.4,13.5 L-15.7,15.6 L-15.8,17.8 L-15.7,19.9 L-15.6,22.0 L-15.6,24.1 L-15.5,26.2 L-15.5,28.4 L-15.6,30.5 L-15.6,32.6 L-15.6,34.7 L-15.7,36.8 L-15.7,39.0 L-15.7,41.1 L-15.8,43.2 L-15.7,44.0 L-15.7,41.9 L-15.7,39.8 L-15.6,37.6 L-15.6,35.5 L-15.6,33.4 L-15.6,31.3 L-15.5,29.2 L-15.5,27.0 L-15.5,24.9 L-15.6,22.8 L-15.6,20.7 L-15.7,18.6 L-15.7,16.4 L-15.5,14.3 L-15.1,12.2 L-14.6,10.2 L-14.0,8.2 L-12.0,8.2 L-9.9,8.5 L-7.9,8.9 L-5.7,9.1 L-3.6,9.1 L-1.5,9.2 L0.6,9.3 L2.7,9.4 L4.9,9.5 L5.4,11.0 L5.2,13.1 L5.1,15.2 L4.9,17.3 L4.8,19.5 L4.6,21.5 L4.9,19.5 L5.0,17.4 L5.1,15.2 L5.3,13.1 L5.5,11.0 L6.3,9.6 L8.4,9.7 L10.5,9.9 L12.6,10.2 L13.2,11.7 L13.0,13.8 L12.8,15.9 L12.4,18.0 L12.1,20.1 L12.7,21.7 L14.7,22.3 L16.7,23.0 L18.7,23.8 L20.7,24.4 L22.8,24.5 L24.9,24.6 L27.1,24.7 L29.2,24.9 L31.3,25.1 L33.4,25.4 L35.1,25.2 L35.4,23.0 L35.6,20.9 L35.8,18.8 L36.1,16.7 L36.3,14.6 L36.5,12.5 L36.8,10.4 L37.0,8.3 L37.2,6.2 L37.5,4.1 L37.7,2.0 L37.9,-0.1 L38.2,-2.3 L38.4,-4.4 L38.6,-6.5 L38.9,-8.6 L39.1,-10.7 L39.4,-12.8 L39.6,-14.9 L39.8,-17.0 L40.1,-19.1 L40.3,-21.2 L40.4,-23.3 L38.4,-23.3 L36.3,-23.1 L34.2,-22.8 L32.1,-22.4 L30.1,-21.8 L28.0,-21.7 L25.9,-21.5 L23.8,-21.4 L22.1,-20.3 L22.3,-18.5 L23.7,-16.9"
        fill="none"
        stroke="currentColor"
        stroke-opacity="0.18"
        stroke-width="2"
        stroke-linecap="round"
        stroke-linejoin="round"
        vector-effect="non-scaling-stroke"/>
</svg>
