<?xml version="1.0" encoding="UTF-8"?>
<svg xmlns="http://www.w3.org/2000/svg"
     viewBox="-50.0 -50.0 100.0 100.0"
     role="img"
     aria-label="Schneider Electric Marathon de Paris 2025 route">
  <title>Schneider Electric Marathon de Paris 2025 route</title>
  <desc>Course route polyline, normalized for abstract display. Source page: https://www.goandrace.com/en/map/2025/schneider-electric-marathon-de-paris-2025-course-map-1.php</desc>
  <path d="M-16.8,-14.8 L-15.8,-14.4 L-14.9,-13.9 L-13.9,-13.4 L-12.9,-12.9 L-11.9,-12.5 L-11.1,-12.9 L-10.1,-12.7 L-9.1,-12.2 L-8.5,-13.0 L-7.9,-13.9 L-7.3,-14.8 L-7.2,-15.8 L-7.5,-16.7 L-6.8,-16.3 L-6.8,-15.2 L-6.6,-14.1 L-6.3,-13.1 L-6.0,-12.0 L-5.7,-11.0 L-6.1,-10.0 L-6.5,-9.1 L-5.6,-8.6 L-4.6,-8.4 L-3.7,-8.6 L-3.3,-9.3 L-2.3,-8.9 L-1.3,-8.4 L-0.3,-7.9 L0.7,-7.4 L1.7,-7.1 L2.7,-6.7 L3.7,-6.3 L4.8,-5.9 L5.7,-5.4 L6.7,-5.0 L7.8,-4.7 L8.7,-4.6 L9.6,-4.0 L10.6,-3.6 L11.6,-3.2 L12.7,-2.9 L13.8,-2.8 L14.9,-2.6 L15.9,-2.4 L17.0,-2.1 L17.7,-1.4 L18.3,-0.5 L18.8,0.4 L19.4,1.4 L19.9,2.3 L20.4,3.3 L20.0,3.8 L19.2,4.0 L20.1,4.5 L21.1,5.0 L22.0,5.5 L23.0,6.1 L24.0,6.5 L24.9,7.1 L25.9,7.4 L27.0,7.4 L28.0,7.0 L29.0,6.5 L30.0,5.9 L30.8,5.3 L31.6,4.5 L32.6,4.0 L33.6,3.6 L34.6,3.2 L35.5,3.4 L36.3,4.2 L37.0,5.0 L37.7,5.8 L38.5,6.6 L39.1,7.4 L39.9,8.2 L40.6,9.0 L41.4,9.8 L42.1,10.6 L42.8,11.5 L43.4,12.2 L44.0,13.1 L43.7,13.9 L42.9,14.6 L42.0,15.3 L41.1,15.8 L40.0,15.7 L39.0,15.8 L38.4,16.6 L37.3,16.7 L36.3,16.4 L35.3,16.0 L34.5,15.3 L33.8,14.4 L32.9,13.8 L31.8,13.4 L30.8,13.3 L29.7,13.4 L28.6,13.3 L27.6,13.0 L26.5,13.0 L25.4,12.9 L24.4,12.5 L23.6,11.8 L22.9,10.9 L22.1,10.2 L21.1,9.9 L20.3,9.1 L19.5,8.4 L18.7,7.6 L18.0,6.8 L17.5,5.9 L16.9,5.0 L16.2,4.1 L15.7,3.1 L15.0,2.3 L14.2,1.6 L13.3,1.0 L12.4,0.3 L11.5,-0.3 L10.6,-1.0 L9.8,-1.6 L8.9,-2.3 L8.5,-3.2 L8.2,-4.3 L7.8,-4.7 L7.4,-3.7 L7.1,-2.6 L6.8,-1.6 L6.1,-1.1 L5.4,-1.9 L4.8,-2.8 L4.7,-3.8 L3.7,-4.4 L2.8,-4.9 L1.8,-5.5 L0.9,-6.1 L-0.0,-6.6 L-1.0,-7.1 L-2.0,-7.5 L-3.0,-7.9 L-4.0,-8.3 L-5.1,-8.4 L-6.2,-8.8 L-7.2,-9.1 L-8.2,-9.6 L-9.2,-10.1 L-10.1,-10.6 L-11.1,-11.1 L-12.1,-11.6 L-13.1,-11.9 L-14.2,-11.9 L-15.3,-11.8 L-16.3,-11.8 L-17.4,-11.8 L-18.5,-11.7 L-19.6,-11.5 L-20.7,-11.3 L-21.7,-10.9 L-22.7,-10.4 L-23.4,-9.6 L-24.1,-8.8 L-24.8,-8.0 L-25.5,-7.1 L-26.2,-6.3 L-26.9,-5.5 L-27.6,-4.7 L-28.4,-4.0 L-29.2,-3.2 L-30.0,-2.4 L-30.6,-1.5 L-31.2,-0.6 L-31.8,0.3 L-32.4,1.2 L-33.1,2.0 L-33.9,2.7 L-34.8,2.8 L-35.7,2.2 L-36.6,1.5 L-37.0,0.5 L-37.9,0.2 L-39.0,0.1 L-40.0,0.1 L-41.1,-0.2 L-42.1,-0.6 L-43.1,-1.0 L-43.5,-1.6 L-43.8,-2.5 L-43.9,-3.6 L-44.0,-4.7 L-43.6,-5.7 L-43.2,-6.7 L-42.8,-7.7 L-41.9,-7.7 L-40.8,-7.5 L-39.7,-7.6 L-38.7,-7.7 L-37.6,-7.9 L-36.5,-7.9 L-35.4,-7.6 L-34.4,-7.2 L-33.4,-7.2 L-32.5,-7.7 L-31.4,-7.8 L-30.4,-7.9 L-29.4,-8.4 L-28.4,-8.8 L-27.4,-9.3 L-26.4,-9.8 L-25.5,-10.4 L-25.5,-11.3 L-25.7,-12.4 L-25.9,-13.4 L-26.1,-14.5 L-26.9,-15.1 L-27.9,-15.5 L-28.9,-15.8 L-29.5,-16.2 L-28.5,-16.4"
        fill="none"
        stroke="currentColor"
        stroke-opacity="0.18"
        stroke-width="2"
        stroke-linecap="round"
        stroke-linejoin="round"
        vector-effect="non-scaling-stroke"/>
</svg>
