<?xml version="1.0" encoding="UTF-8"?>
<svg xmlns="http://www.w3.org/2000/svg"
     viewBox="-50.0 -50.0 100.0 100.0"
     role="img"
     aria-label="Philadelphia Marathon 2025 route">
  <title>Philadelphia Marathon 2025 route</title>
  <desc>Course route polyline, normalized for abstract display. Source page: https://www.goandrace.com/en/map/2025/philadelphia-marathon-2025-philadelphia-course-map-1.php</desc>
  <path d="M3.7,16.6 L5.0,17.8 L6.2,18.9 L7.3,20.1 L8.3,21.2 L9.6,22.2 L10.8,23.4 L12.4,23.8 L14.1,24.0 L15.7,24.3 L17.4,24.6 L19.0,24.8 L20.7,25.1 L22.3,25.4 L24.0,25.7 L25.5,25.7 L25.8,24.1 L27.5,24.4 L29.2,24.5 L30.4,25.1 L30.0,26.8 L29.7,28.4 L29.4,30.0 L29.1,31.7 L28.9,33.4 L28.8,35.0 L28.7,36.7 L28.7,38.4 L28.8,40.0 L28.7,41.7 L28.2,43.3 L26.9,44.0 L26.4,42.9 L26.7,41.2 L27.0,39.6 L27.3,37.9 L26.9,36.7 L25.3,36.5 L23.6,36.2 L22.0,35.9 L21.6,34.8 L21.8,33.1 L22.1,31.5 L22.4,29.8 L21.8,28.8 L20.2,28.5 L18.5,28.2 L16.9,28.0 L15.2,27.7 L13.6,27.4 L11.9,27.2 L11.4,28.4 L9.8,28.3 L8.2,28.1 L6.5,27.8 L4.9,27.5 L3.2,27.3 L1.6,27.0 L-0.1,26.7 L-1.7,26.4 L-3.4,26.2 L-5.0,25.9 L-6.7,25.7 L-7.9,25.0 L-7.6,23.4 L-7.4,21.7 L-7.1,20.1 L-7.0,18.4 L-7.3,16.7 L-7.5,15.1 L-7.8,13.4 L-8.0,11.8 L-8.3,10.1 L-8.8,8.5 L-9.3,6.9 L-9.8,5.3 L-10.1,3.7 L-11.7,3.1 L-13.3,3.0 L-14.9,3.0 L-16.5,3.2 L-18.1,3.4 L-19.6,2.7 L-21.1,1.9 L-20.9,0.6 L-22.4,-0.1 L-23.9,-0.9 L-25.4,-1.6 L-26.9,-2.3 L-28.1,-3.3 L-27.3,-4.7 L-25.8,-5.1 L-24.9,-4.5 L-24.6,-2.8 L-23.4,-1.7 L-21.8,-1.4 L-20.2,-2.0 L-19.2,-0.9 L-18.6,0.6 L-17.8,2.0 L-16.9,3.3 L-15.3,2.9 L-13.8,3.1 L-12.1,3.0 L-10.5,3.5 L-9.2,3.9 L-7.5,3.7 L-5.9,3.5 L-6.2,2.0 L-5.8,0.4 L-5.5,-1.2 L-6.4,-2.0 L-7.9,-2.6 L-9.5,-3.2 L-10.6,-4.5 L-11.3,-6.0 L-11.4,-7.6 L-10.4,-8.7 L-8.7,-9.0 L-7.2,-9.7 L-6.2,-11.0 L-6.3,-12.3 L-7.9,-12.9 L-9.2,-12.0 L-10.3,-10.8 L-8.9,-10.2 L-7.4,-9.6 L-8.8,-9.0 L-10.5,-8.7 L-11.4,-7.5 L-11.4,-5.9 L-12.0,-4.3 L-12.0,-2.6 L-12.6,-1.2 L-14.1,-1.9 L-15.3,-3.1 L-16.2,-4.5 L-15.6,-5.9 L-14.4,-7.0 L-13.3,-8.4 L-12.3,-9.6 L-11.4,-11.0 L-10.3,-12.3 L-9.0,-13.3 L-8.2,-14.7 L-7.4,-16.2 L-7.1,-17.9 L-6.9,-19.5 L-6.8,-21.2 L-6.8,-22.8 L-7.0,-24.5 L-7.5,-26.0 L-8.7,-27.2 L-10.1,-28.0 L-11.5,-28.8 L-13.1,-29.5 L-14.6,-30.1 L-15.9,-31.1 L-17.0,-32.4 L-17.5,-33.8 L-19.1,-34.4 L-20.6,-35.0 L-22.1,-35.7 L-23.4,-36.6 L-24.2,-38.1 L-25.3,-39.4 L-26.5,-40.5 L-27.7,-41.7 L-28.9,-42.9 L-30.2,-43.9 L-30.4,-44.0 L-29.0,-43.1 L-27.8,-41.9 L-26.7,-40.7 L-25.5,-39.5 L-24.3,-38.3 L-23.5,-36.8 L-22.3,-35.7 L-20.8,-35.1 L-19.3,-34.5 L-18.7,-33.4 L-18.0,-32.0 L-16.8,-30.8 L-15.2,-30.3 L-13.7,-29.7 L-12.1,-29.0 L-10.6,-28.3 L-9.1,-27.6 L-7.8,-26.6 L-7.1,-25.1 L-6.7,-23.4 L-6.6,-21.8 L-6.8,-20.1 L-6.9,-18.5 L-7.2,-16.8 L-7.8,-15.3 L-8.5,-13.7 L-9.6,-12.6 L-10.9,-11.5 L-11.8,-10.1 L-12.9,-8.8 L-13.9,-7.5 L-15.1,-6.3 L-16.1,-5.0 L-15.5,-3.5 L-14.3,-2.3 L-12.9,-1.5 L-11.5,-0.6 L-10.3,0.5 L-9.1,1.7 L-8.1,3.1 L-7.2,4.5 L-6.6,6.0 L-6.4,7.6 L-5.7,9.0 L-4.0,9.2 L-2.4,9.6 L-1.0,10.5 L0.3,11.5 L1.5,12.6"
        fill="none"
        stroke="currentColor"
        stroke-opacity="0.18"
        stroke-width="2"
        stroke-linecap="round"
        stroke-linejoin="round"
        vector-effect="non-scaling-stroke"/>
</svg>
