<?xml version="1.0" encoding="UTF-8"?>
<svg xmlns="http://www.w3.org/2000/svg"
     viewBox="-50.0 -50.0 100.0 100.0"
     role="img"
     aria-label="ORLEN Prague Marathon 2025 route">
  <title>ORLEN Prague Marathon 2025 route</title>
  <desc>Course route polyline, normalized for abstract display. Source page: https://www.goandrace.com/en/map/2025/orlen-prague-marathon-2025-course-map-1.php</desc>
  <path d="M-15.6,-19.4 L-16.8,-21.9 L-17.8,-24.4 L-18.8,-26.9 L-20.0,-29.2 L-22.5,-28.2 L-24.7,-26.8 L-26.5,-25.4 L-28.6,-24.4 L-31.1,-23.6 L-31.5,-20.9 L-30.6,-19.1 L-28.0,-18.4 L-25.4,-17.8 L-22.7,-17.2 L-21.3,-18.8 L-21.0,-21.3 L-23.4,-22.4 L-24.6,-23.8 L-23.1,-26.0 L-22.4,-28.2 L-19.9,-29.0 L-17.3,-29.9 L-14.7,-30.4 L-12.1,-31.1 L-9.4,-31.5 L-6.8,-32.2 L-4.2,-33.1 L-1.7,-34.1 L0.8,-35.3 L3.3,-36.1 L6.1,-36.2 L8.8,-36.0 L11.5,-36.3 L13.9,-37.3 L14.3,-39.4 L16.9,-39.4 L19.2,-40.5 L19.6,-43.2 L21.6,-43.8 L24.3,-43.9 L27.0,-44.0 L29.7,-43.8 L31.5,-42.5 L30.3,-40.0 L29.2,-37.6 L27.3,-35.7 L24.9,-34.3 L22.4,-33.4 L19.8,-32.5 L17.3,-31.6 L14.7,-30.7 L12.1,-29.8 L9.5,-29.0 L6.9,-29.5 L4.1,-29.6 L1.4,-29.4 L-1.3,-29.0 L-4.0,-28.7 L-6.7,-28.4 L-9.4,-28.2 L-12.1,-28.0 L-14.8,-27.8 L-17.4,-27.1 L-18.1,-25.2 L-17.1,-22.7 L-16.0,-20.2 L-14.0,-18.9 L-11.3,-18.8 L-8.6,-18.9 L-9.9,-17.1 L-11.8,-15.2 L-13.7,-13.2 L-15.9,-11.7 L-18.4,-10.8 L-21.0,-10.0 L-23.2,-9.5 L-22.4,-6.9 L-22.1,-4.2 L-22.3,-1.5 L-24.8,-0.7 L-27.3,0.0 L-28.3,2.0 L-27.4,4.0 L-24.7,3.6 L-22.4,3.8 L-22.0,6.5 L-21.7,9.2 L-21.3,11.9 L-18.8,11.4 L-16.1,11.3 L-14.4,13.0 L-12.6,14.8 L-10.2,13.6 L-7.5,13.6 L-4.8,13.8 L-3.1,15.3 L-5.7,15.7 L-8.4,15.8 L-11.2,15.8 L-13.3,14.3 L-14.9,12.2 L-17.1,11.1 L-19.8,11.8 L-21.0,13.4 L-20.6,16.1 L-20.0,18.7 L-18.2,20.7 L-17.1,23.1 L-16.8,25.8 L-17.2,28.5 L-17.7,31.2 L-18.6,33.8 L-19.5,36.3 L-20.5,38.9 L-21.4,41.4 L-22.3,44.0 L-21.7,41.7 L-20.8,39.1 L-19.9,36.5 L-19.0,34.0 L-18.1,31.4 L-17.4,28.8 L-17.0,26.1 L-17.2,23.4 L-18.2,20.9 L-20.0,19.0 L-20.7,16.4 L-21.1,13.7 L-21.5,11.0 L-21.9,8.3 L-22.3,5.6 L-23.0,3.5 L-25.7,3.8 L-27.9,4.6 L-27.5,7.2 L-27.0,9.9 L-26.6,12.6 L-26.2,15.3 L-25.7,18.0 L-25.3,20.7 L-25.2,23.4 L-25.4,26.1 L-25.7,28.8 L-26.0,31.5 L-25.9,34.2 L-25.8,34.5 L-26.0,31.8 L-25.7,29.1 L-25.4,26.4 L-25.2,23.6 L-25.2,20.9 L-25.6,18.2 L-26.0,15.6 L-25.6,12.9 L-25.8,10.2 L-25.9,7.5 L-25.8,4.8 L-26.4,2.1 L-27.2,-0.5 L-28.1,-3.1 L-28.2,-5.8 L-28.3,-8.5 L-26.7,-9.6 L-23.9,-9.6 L-23.1,-11.8 L-22.8,-14.5 L-21.9,-17.1 L-21.1,-19.7 L-21.7,-21.7 L-24.2,-22.6 L-24.1,-24.4 L-22.6,-26.7 L-21.6,-28.3 L-19.1,-29.3 L-16.5,-30.0 L-13.8,-30.5 L-11.2,-31.2 L-8.5,-31.7 L-5.9,-32.5 L-3.4,-33.5 L-0.9,-34.5 L1.6,-35.6 L4.2,-36.2 L6.9,-36.1 L9.6,-36.0 L12.3,-36.5 L13.9,-38.2 L15.1,-39.3 L17.8,-39.5 L19.5,-41.3 L19.8,-43.9 L22.5,-43.9 L25.2,-43.9 L27.9,-44.0 L30.6,-43.6 L31.2,-41.6 L29.9,-39.2 L28.8,-36.8 L26.6,-35.2 L24.1,-34.0 L21.6,-33.1 L19.0,-32.2 L16.4,-31.3 L13.9,-30.4 L11.3,-29.5 L8.7,-29.1 L6.0,-29.7 L3.3,-29.5 L0.6,-29.2 L-2.1,-28.9 L-4.8,-28.6 L-7.5,-28.3 L-10.2,-28.2 L-12.9,-28.0 L-15.6,-27.6 L-18.2,-26.7 L-17.8,-24.4 L-16.8,-21.9 L-15.6,-19.4"
        fill="none"
        stroke="currentColor"
        stroke-opacity="0.18"
        stroke-width="2"
        stroke-linecap="round"
        stroke-linejoin="round"
        vector-effect="non-scaling-stroke"/>
</svg>
