<?xml version="1.0" encoding="UTF-8"?>
<svg xmlns="http://www.w3.org/2000/svg"
     viewBox="-50.0 -50.0 100.0 100.0"
     role="img"
     aria-label="Run Rome The Marathon 2025 route">
  <title>Run Rome The Marathon 2025 route</title>
  <desc>Course route polyline, normalized for abstract display. Source page: https://www.goandrace.com/en/map/2025/run-rome-the-marathon-2025-roma-course-map-1.php</desc>
  <path d="M10.8,1.6 L12.4,2.6 L14.1,3.2 L14.9,4.4 L13.4,5.0 L12.1,6.1 L11.7,7.9 L11.3,9.7 L10.3,11.2 L9.0,12.5 L7.7,13.9 L6.5,15.3 L5.7,17.0 L6.0,18.5 L7.5,19.5 L9.0,20.6 L10.5,21.7 L12.0,22.8 L13.7,23.5 L15.5,24.0 L16.7,24.8 L16.6,26.7 L16.3,28.1 L14.5,28.1 L12.6,28.1 L10.8,28.1 L8.9,28.1 L7.1,28.1 L5.2,28.0 L3.4,27.6 L3.1,29.5 L2.9,31.3 L2.7,33.2 L2.5,35.0 L2.5,36.8 L2.1,38.6 L1.7,40.4 L1.5,42.3 L1.2,44.0 L-0.7,43.9 L-1.7,42.8 L-2.3,41.0 L-2.8,39.2 L-3.2,37.4 L-3.6,35.6 L-3.0,34.4 L-1.3,33.7 L-0.0,32.3 L0.2,30.5 L-0.7,28.9 L-1.6,27.3 L-2.3,25.6 L-3.2,24.0 L-5.0,24.0 L-5.9,23.2 L-5.9,21.3 L-4.6,20.1 L-3.0,19.3 L-2.7,17.8 L-1.3,17.7 L0.1,17.8 L1.7,16.9 L3.3,16.1 L2.5,14.4 L1.6,12.8 L1.2,11.1 L2.4,9.7 L3.6,8.3 L4.2,6.6 L4.1,4.7 L3.3,3.1 L1.7,2.1 L-0.1,2.2 L-1.9,2.0 L-3.3,0.8 L-4.6,-0.5 L-5.9,-1.9 L-7.1,-3.3 L-8.0,-4.9 L-8.4,-6.7 L-8.8,-8.1 L-10.3,-8.9 L-12.2,-8.9 L-13.5,-9.8 L-13.6,-11.6 L-12.8,-12.6 L-11.2,-12.7 L-9.3,-12.6 L-7.5,-12.4 L-5.6,-12.2 L-4.6,-10.9 L-3.5,-9.8 L-1.9,-10.7 L-0.7,-11.7 L0.1,-12.8 L-0.2,-14.6 L-1.2,-16.2 L-2.5,-16.6 L-4.3,-16.1 L-6.0,-15.5 L-7.8,-14.9 L-9.6,-14.3 L-10.1,-16.0 L-10.1,-17.5 L-8.3,-18.1 L-6.6,-18.6 L-5.0,-19.4 L-5.5,-20.8 L-7.2,-20.2 L-9.0,-19.7 L-10.8,-19.1 L-12.5,-18.5 L-14.3,-18.0 L-15.9,-17.8 L-16.2,-19.6 L-16.5,-21.4 L-16.7,-23.2 L-15.3,-23.4 L-13.7,-22.5 L-11.9,-22.3 L-10.0,-22.6 L-9.4,-24.1 L-10.1,-25.8 L-10.3,-27.4 L-8.5,-27.2 L-6.7,-26.8 L-5.0,-26.2 L-4.6,-27.7 L-5.9,-28.9 L-7.7,-29.4 L-9.5,-29.9 L-11.0,-31.0 L-12.5,-31.9 L-12.9,-33.4 L-13.2,-35.2 L-13.1,-37.1 L-12.6,-38.9 L-11.6,-39.7 L-10.0,-38.8 L-9.0,-40.4 L-7.8,-41.8 L-6.3,-42.9 L-4.6,-43.5 L-2.7,-43.7 L-0.9,-44.0 L1.0,-44.0 L2.7,-43.3 L3.0,-41.7 L1.3,-41.2 L1.1,-39.7 L0.4,-38.4 L-1.5,-38.3 L-1.7,-40.1 L-3.3,-40.3 L-4.9,-39.7 L-4.4,-37.9 L-4.6,-36.2 L-4.0,-34.4 L-3.5,-32.6 L-4.8,-32.7 L-6.5,-33.3 L-8.3,-34.0 L-8.9,-35.6 L-9.7,-36.3 L-10.9,-35.0 L-10.1,-33.3 L-8.6,-32.2 L-6.9,-31.5 L-5.1,-30.9 L-3.8,-29.7 L-3.0,-28.0 L-2.7,-26.2 L-2.7,-24.4 L-2.7,-22.5 L-2.2,-20.7 L-1.9,-18.9 L-1.3,-17.2 L-0.4,-15.5 L0.1,-13.7 L0.4,-12.1 L1.6,-11.8 L2.1,-13.3 L2.0,-14.8 L1.5,-16.6 L1.2,-17.9 L2.2,-16.4 L3.5,-15.0 L4.7,-13.6 L5.9,-12.2 L7.2,-10.9 L8.2,-9.5 L6.5,-8.9 L4.7,-8.3 L3.7,-9.3 L3.2,-11.1 L1.6,-10.6 L-0.0,-9.7 L-1.7,-9.0 L-2.2,-7.8 L-1.6,-6.5 L-1.7,-4.7 L-0.7,-3.8 L0.3,-2.7 L2.0,-2.2 L3.6,-1.6 L5.0,-0.3 L4.6,1.1 L4.2,2.8 L4.8,4.6 L6.2,5.8 L7.6,6.9 L9.1,8.0 L10.6,9.1 L11.5,8.0 L11.9,6.2 L13.1,4.9 L14.8,4.4 L14.1,3.2 L12.4,2.6 L10.8,1.6"
        fill="none"
        stroke="currentColor"
        stroke-opacity="0.18"
        stroke-width="2"
        stroke-linecap="round"
        stroke-linejoin="round"
        vector-effect="non-scaling-stroke"/>
</svg>
