<?xml version="1.0" encoding="UTF-8"?>
<svg xmlns="http://www.w3.org/2000/svg"
     viewBox="-50.0 -50.0 100.0 100.0"
     role="img"
     aria-label="NN Marathon Rotterdam 2025 route">
  <title>NN Marathon Rotterdam 2025 route</title>
  <desc>Course route polyline, normalized for abstract display. Source page: https://www.goandrace.com/en/map/2025/nn-marathon-rotterdam-2025-course-map-1.php</desc>
  <path d="M-16.2,-5.3 L-15.7,-3.4 L-14.1,-2.3 L-12.4,-1.2 L-10.8,-0.2 L-9.2,-0.8 L-7.5,0.1 L-5.8,1.2 L-4.2,2.3 L-2.6,3.4 L-0.9,4.5 L0.8,5.6 L2.4,6.7 L4.0,7.8 L5.5,9.0 L7.1,10.2 L8.4,11.7 L10.2,12.4 L12.1,13.1 L14.0,13.8 L15.8,14.4 L17.7,14.4 L19.7,14.1 L21.6,13.7 L23.6,13.4 L25.5,13.2 L27.5,13.2 L28.0,14.8 L28.2,16.8 L27.7,18.7 L27.2,20.6 L26.2,22.3 L24.7,23.3 L22.7,23.4 L20.7,23.5 L18.8,23.7 L17.0,24.0 L17.2,25.8 L18.2,27.5 L19.1,29.3 L19.2,30.7 L17.5,31.7 L15.8,32.7 L14.1,33.6 L12.3,34.6 L11.7,36.0 L12.6,37.7 L13.7,39.3 L15.4,40.3 L16.2,41.8 L14.6,43.0 L12.7,43.7 L10.9,43.9 L8.9,43.8 L6.9,43.8 L5.0,43.8 L3.0,43.8 L1.0,43.9 L-1.0,43.9 L-2.9,43.9 L-4.9,43.9 L-6.8,43.9 L-8.8,43.9 L-10.8,43.9 L-12.8,43.9 L-14.7,43.9 L-16.7,43.9 L-18.7,43.9 L-20.7,43.9 L-22.6,44.0 L-24.6,44.0 L-26.6,44.0 L-28.2,43.6 L-27.8,41.7 L-27.5,39.7 L-27.1,37.8 L-25.7,37.4 L-25.1,35.8 L-24.7,33.9 L-23.2,33.6 L-21.3,34.0 L-19.3,34.4 L-17.4,34.7 L-15.4,35.0 L-13.5,35.1 L-11.5,35.1 L-9.6,34.6 L-7.8,33.9 L-6.1,32.9 L-4.5,31.7 L-3.6,30.4 L-4.8,28.9 L-6.4,27.8 L-8.2,26.9 L-10.0,26.4 L-11.9,26.6 L-13.9,26.9 L-15.5,27.9 L-16.8,29.4 L-17.7,31.2 L-18.1,33.1 L-19.1,34.1 L-21.1,33.8 L-23.0,33.4 L-25.0,33.1 L-26.9,32.7 L-26.2,31.5 L-24.9,30.0 L-24.1,28.2 L-23.8,26.3 L-23.5,24.3 L-23.3,22.4 L-23.0,20.4 L-22.1,18.6 L-20.9,17.2 L-19.3,16.0 L-17.5,15.4 L-15.6,14.7 L-13.8,13.9 L-12.0,13.3 L-10.1,12.7 L-8.2,12.1 L-6.3,11.5 L-4.4,11.0 L-2.5,10.7 L-0.5,10.6 L1.5,10.4 L3.1,9.4 L3.6,7.9 L2.0,6.7 L0.4,5.6 L-1.3,4.6 L-2.9,3.5 L-4.5,2.3 L-6.2,1.2 L-7.8,0.1 L-9.5,-0.2 L-11.1,-0.4 L-12.8,-1.4 L-14.4,-2.5 L-15.9,-3.8 L-16.2,-5.7 L-16.3,-7.7 L-16.4,-9.7 L-17.2,-11.2 L-19.1,-10.7 L-18.2,-11.1 L-16.3,-11.7 L-14.4,-12.2 L-12.5,-12.8 L-10.9,-13.8 L-10.6,-15.4 L-11.3,-17.3 L-11.7,-19.2 L-11.4,-20.9 L-9.5,-20.7 L-7.5,-20.6 L-6.4,-21.9 L-6.2,-23.9 L-5.8,-25.8 L-5.5,-27.8 L-5.2,-29.7 L-4.8,-31.7 L-3.7,-33.2 L-2.6,-34.8 L-1.8,-36.6 L-1.0,-38.4 L0.3,-39.8 L2.0,-40.9 L3.7,-41.8 L5.5,-42.7 L7.3,-43.4 L9.2,-44.0 L11.2,-44.0 L13.0,-43.3 L14.8,-42.5 L15.6,-40.9 L16.3,-39.1 L16.8,-37.2 L17.3,-35.2 L17.8,-33.3 L18.3,-31.4 L18.8,-29.5 L19.3,-27.6 L19.8,-25.7 L20.2,-23.8 L19.6,-22.3 L17.7,-21.8 L15.8,-21.3 L13.9,-21.4 L12.0,-21.9 L10.1,-22.3 L8.3,-23.1 L6.7,-24.3 L5.3,-25.6 L3.6,-26.7 L1.9,-27.7 L0.2,-28.6 L-1.6,-29.6 L-2.9,-30.9 L-4.2,-32.4 L-4.9,-30.9 L-5.3,-28.9 L-5.6,-27.0 L-5.9,-25.0 L-6.2,-23.1 L-6.4,-21.1 L-8.1,-20.6 L-10.1,-20.7 L-11.5,-20.1 L-11.3,-18.2 L-10.7,-16.3 L-10.0,-14.5 L-11.5,-13.3 L-13.3,-12.7 L-15.2,-12.1 L-17.0,-11.9 L-17.6,-13.8 L-18.2,-15.6 L-18.8,-17.5"
        fill="none"
        stroke="currentColor"
        stroke-opacity="0.18"
        stroke-width="2"
        stroke-linecap="round"
        stroke-linejoin="round"
        vector-effect="non-scaling-stroke"/>
</svg>
