<?xml version="1.0" encoding="UTF-8"?>
<svg xmlns="http://www.w3.org/2000/svg"
     viewBox="-50.0 -50.0 100.0 100.0"
     role="img"
     aria-label="Seoul Marathon 2025 route">
  <title>Seoul Marathon 2025 route</title>
  <desc>Course route polyline, normalized for abstract display. Source page: https://www.goandrace.com/en/map/2025/seoul-marathon-2025-seoul-course-map-1.php</desc>
  <path d="M-43.0,-26.6 L-43.0,-25.0 L-43.1,-23.5 L-43.1,-21.9 L-43.1,-20.3 L-43.1,-18.8 L-43.5,-17.3 L-44.0,-15.8 L-42.9,-15.6 L-41.4,-16.0 L-40.1,-16.8 L-39.6,-18.2 L-39.2,-19.7 L-37.8,-20.2 L-36.2,-20.2 L-34.7,-20.3 L-33.1,-20.4 L-31.5,-20.5 L-30.0,-20.6 L-28.4,-20.7 L-26.8,-20.8 L-25.3,-20.9 L-23.7,-20.7 L-22.2,-20.4 L-20.8,-20.0 L-19.3,-20.1 L-18.0,-20.9 L-18.5,-22.0 L-19.9,-22.5 L-20.8,-21.3 L-21.9,-20.4 L-23.3,-20.7 L-24.8,-21.0 L-26.4,-20.9 L-27.9,-20.8 L-29.5,-20.7 L-31.0,-20.6 L-32.6,-20.5 L-34.2,-20.4 L-35.7,-20.4 L-37.3,-20.3 L-38.9,-20.3 L-40.4,-20.2 L-41.7,-20.4 L-41.6,-21.9 L-41.0,-22.8 L-39.4,-22.7 L-37.9,-22.4 L-36.4,-22.0 L-34.8,-22.0 L-33.2,-22.1 L-31.7,-22.2 L-30.1,-22.4 L-28.6,-22.6 L-27.0,-22.9 L-25.5,-23.2 L-23.9,-23.3 L-22.4,-23.3 L-20.8,-23.4 L-19.3,-23.4 L-17.7,-23.4 L-16.1,-23.4 L-14.6,-23.7 L-13.3,-24.5 L-11.9,-25.3 L-10.4,-25.1 L-8.9,-24.6 L-7.4,-24.1 L-5.9,-23.5 L-4.4,-23.4 L-3.1,-24.2 L-1.9,-25.1 L-0.4,-25.5 L-0.7,-26.1 L-2.1,-25.6 L-3.3,-24.6 L-4.7,-23.8 L-6.2,-24.1 L-7.6,-24.6 L-9.1,-25.2 L-10.6,-25.6 L-12.1,-25.6 L-13.5,-24.8 L-14.8,-24.0 L-16.4,-23.8 L-17.9,-23.8 L-19.5,-23.7 L-21.1,-23.7 L-22.6,-23.6 L-24.2,-23.6 L-25.7,-23.5 L-27.3,-23.2 L-28.8,-22.8 L-30.3,-22.6 L-31.9,-22.5 L-33.5,-22.3 L-35.0,-22.2 L-36.6,-22.4 L-38.1,-22.7 L-39.6,-23.0 L-41.2,-23.1 L-41.1,-23.9 L-39.5,-23.9 L-38.1,-24.0 L-36.5,-24.0 L-34.9,-24.1 L-33.4,-24.2 L-31.8,-24.3 L-30.2,-24.4 L-28.7,-24.5 L-27.1,-24.6 L-25.6,-24.7 L-24.0,-24.8 L-22.4,-24.8 L-20.9,-24.9 L-19.4,-25.3 L-17.9,-25.8 L-16.4,-26.3 L-14.9,-26.8 L-13.5,-27.4 L-12.0,-28.0 L-10.6,-28.7 L-9.3,-28.2 L-7.9,-27.4 L-6.4,-27.4 L-4.8,-27.4 L-3.3,-27.4 L-1.7,-27.4 L-0.1,-27.5 L1.4,-27.1 L2.8,-26.6 L4.2,-25.8 L5.6,-25.1 L6.9,-24.3 L8.2,-23.3 L9.3,-22.3 L10.5,-21.2 L11.6,-20.2 L12.8,-19.1 L13.9,-18.0 L15.1,-17.0 L16.6,-16.7 L18.2,-16.4 L19.7,-16.1 L21.3,-15.8 L22.8,-15.6 L24.3,-15.0 L25.7,-14.4 L27.1,-13.7 L28.5,-12.9 L29.7,-12.2 L29.0,-10.8 L28.4,-9.3 L27.8,-7.9 L27.3,-6.4 L26.7,-5.0 L26.0,-3.6 L24.6,-3.9 L23.0,-4.2 L21.5,-4.4 L19.9,-4.3 L18.4,-4.2 L16.8,-4.2 L15.3,-4.6 L13.8,-5.1 L12.4,-5.8 L11.0,-6.4 L9.5,-6.9 L7.9,-7.2 L6.4,-7.3 L4.9,-7.1 L4.7,-5.7 L4.8,-4.1 L5.0,-2.6 L5.1,-1.0 L4.8,0.5 L5.2,1.7 L6.6,2.3 L8.1,2.8 L9.6,3.3 L11.1,3.8 L12.5,4.3 L14.0,4.8 L15.5,5.3 L17.0,5.8 L18.5,6.3 L20.0,6.7 L21.5,7.2 L22.9,7.8 L24.4,8.3 L25.9,8.8 L27.3,9.4 L28.8,9.9 L30.3,10.5 L31.8,10.8 L33.3,10.3 L34.3,10.7 L35.1,12.0 L35.9,13.4 L36.8,14.7 L37.6,16.0 L38.4,17.4 L39.2,18.7 L40.0,20.0 L40.8,21.4 L41.7,22.7 L42.5,24.0 L43.2,25.4 L44.0,26.8 L43.2,27.5 L41.7,28.0 L40.1,28.2 L38.6,28.4 L37.1,28.6 L35.5,28.7 L33.9,28.6 L32.4,28.5 L30.8,28.4 L29.3,28.3 L28.7,27.1"
        fill="none"
        stroke="currentColor"
        stroke-opacity="0.18"
        stroke-width="2"
        stroke-linecap="round"
        stroke-linejoin="round"
        vector-effect="non-scaling-stroke"/>
</svg>
