<?xml version="1.0" encoding="UTF-8"?>
<svg xmlns="http://www.w3.org/2000/svg"
     viewBox="-50.0 -50.0 100.0 100.0"
     role="img"
     aria-label="Singapore Marathon 2024 route">
  <title>Singapore Marathon 2024 route</title>
  <desc>Course route polyline, normalized for abstract display. Source page: https://www.goandrace.com/en/map/2024/singapore-marathon-2024-singapore-course-map-1.php</desc>
  <path d="M-0.4,-4.1 L-0.8,-5.2 L-1.5,-6.0 L-1.4,-7.2 L-1.1,-8.4 L-0.3,-9.2 L0.8,-9.8 L1.6,-10.7 L1.4,-11.8 L0.5,-11.7 L-0.5,-11.0 L-1.2,-10.3 L-0.3,-10.3 L0.7,-11.0 L1.7,-11.7 L2.8,-12.4 L3.8,-13.0 L4.8,-13.7 L6.0,-14.1 L7.2,-14.2 L8.4,-14.4 L9.3,-15.0 L10.4,-14.6 L11.6,-14.1 L12.3,-13.4 L11.2,-12.9 L10.1,-12.4 L8.9,-12.5 L8.4,-13.6 L7.3,-13.8 L6.0,-13.7 L5.0,-13.3 L3.9,-13.0 L2.8,-12.3 L1.8,-11.6 L0.8,-10.9 L-0.2,-10.2 L-1.2,-9.5 L-2.2,-8.7 L-3.2,-8.0 L-4.0,-7.1 L-4.9,-6.3 L-5.8,-6.8 L-5.0,-7.7 L-4.1,-7.4 L-3.5,-6.4 L-3.7,-5.4 L-2.7,-4.8 L-2.6,-3.6 L-1.7,-3.1 L-1.3,-4.0 L-1.6,-5.2 L-1.5,-6.4 L-1.9,-6.7 L-2.1,-5.6 L-1.1,-5.0 L0.2,-5.2 L1.4,-5.4 L2.6,-5.6 L3.8,-5.8 L5.0,-6.0 L6.2,-6.0 L7.5,-6.1 L8.6,-6.6 L9.8,-6.4 L11.0,-6.4 L12.2,-6.3 L13.5,-6.4 L14.7,-6.2 L15.9,-6.1 L17.1,-6.1 L18.3,-6.1 L19.6,-6.1 L20.8,-5.9 L21.9,-6.3 L23.1,-6.4 L23.9,-7.1 L25.0,-7.6 L26.1,-8.1 L27.3,-8.5 L28.4,-8.9 L29.6,-9.3 L30.8,-9.6 L31.9,-9.1 L32.9,-9.7 L33.8,-10.5 L35.0,-10.8 L36.2,-11.1 L37.4,-11.5 L38.5,-11.8 L39.7,-12.1 L40.9,-12.5 L42.1,-12.8 L43.3,-13.2 L44.0,-13.4 L42.8,-13.0 L41.6,-12.7 L40.5,-12.4 L39.3,-12.0 L38.1,-11.7 L36.9,-11.4 L35.7,-11.0 L34.6,-10.7 L33.4,-10.3 L32.7,-9.4 L31.5,-9.3 L30.4,-9.5 L29.2,-9.2 L28.0,-8.8 L26.9,-8.4 L25.7,-8.0 L24.6,-7.5 L23.8,-6.8 L22.7,-6.4 L21.5,-6.2 L20.4,-6.0 L19.2,-5.9 L17.9,-6.0 L16.7,-5.9 L15.5,-5.8 L14.7,-5.3 L14.3,-4.2 L13.3,-3.5 L12.3,-2.8 L11.2,-2.2 L10.2,-1.5 L9.2,-0.8 L9.1,0.1 L9.4,1.3 L8.9,2.4 L7.9,3.2 L7.8,4.1 L6.9,3.5 L6.0,3.6 L5.0,4.3 L4.2,5.1 L3.2,5.0 L2.1,4.6 L0.9,4.6 L-0.2,5.3 L-0.8,6.3 L-1.5,7.4 L-2.4,7.5 L-3.4,6.8 L-4.5,6.2 L-5.5,5.5 L-6.6,4.9 L-7.6,4.2 L-8.7,3.5 L-9.6,3.4 L-10.3,4.4 L-11.0,5.4 L-11.6,6.5 L-12.4,7.4 L-13.2,8.3 L-14.0,9.3 L-14.9,10.1 L-16.1,10.2 L-17.4,10.2 L-18.6,10.2 L-19.8,10.3 L-21.1,10.3 L-22.3,10.3 L-23.4,10.7 L-24.3,11.6 L-25.2,12.4 L-26.1,13.3 L-27.0,14.1 L-28.0,14.8 L-29.2,14.9 L-30.4,15.0 L-31.6,14.9 L-32.7,14.3 L-33.8,13.6 L-34.8,13.1 L-35.9,12.4 L-36.9,11.7 L-38.1,11.3 L-39.3,11.2 L-40.5,11.0 L-41.7,10.5 L-42.8,10.2 L-44.0,10.0 L-42.8,10.1 L-41.6,10.5 L-40.5,10.9 L-39.3,11.2 L-38.0,11.2 L-36.9,11.6 L-35.9,12.3 L-34.8,12.9 L-33.7,13.5 L-32.7,14.2 L-31.6,14.8 L-30.4,14.9 L-29.2,14.9 L-28.0,14.7 L-27.0,14.0 L-26.1,13.2 L-25.2,12.3 L-24.3,11.4 L-23.4,10.6 L-22.4,10.1 L-21.1,10.1 L-19.9,10.2 L-18.7,10.1 L-17.4,10.1 L-16.2,10.1 L-15.0,10.1 L-14.1,9.3 L-13.3,8.4 L-12.5,7.4 L-11.7,6.5 L-11.0,5.4 L-10.4,4.4 L-9.7,3.4 L-8.7,2.8 L-8.2,1.7 L-7.8,0.5 L-8.4,-0.4"
        fill="none"
        stroke="currentColor"
        stroke-opacity="0.18"
        stroke-width="2"
        stroke-linecap="round"
        stroke-linejoin="round"
        vector-effect="non-scaling-stroke"/>
</svg>
