<?xml version="1.0" encoding="UTF-8"?>
<svg xmlns="http://www.w3.org/2000/svg"
     viewBox="-50.0 -50.0 100.0 100.0"
     role="img"
     aria-label="adidas Stockholm Marathon 2025 route">
  <title>adidas Stockholm Marathon 2025 route</title>
  <desc>Course route polyline, normalized for abstract display. Source page: https://www.goandrace.com/en/map/2025/adidas-stockholm-marathon-2025-course-map-1.php</desc>
  <path d="M3.7,-25.1 L1.7,-23.4 L-0.2,-22.8 L-2.6,-23.9 L-4.9,-25.1 L-7.2,-26.4 L-9.4,-26.1 L-11.8,-24.9 L-14.2,-23.8 L-16.5,-22.6 L-16.2,-20.5 L-15.1,-18.1 L-13.9,-15.7 L-12.8,-13.3 L-11.7,-11.0 L-12.0,-9.1 L-14.4,-7.9 L-16.6,-7.4 L-18.6,-8.3 L-20.7,-9.7 L-23.1,-10.6 L-25.6,-11.6 L-27.9,-12.8 L-29.4,-15.0 L-31.3,-15.5 L-32.6,-13.2 L-33.6,-10.8 L-34.6,-8.4 L-32.5,-7.4 L-30.0,-6.7 L-27.4,-6.0 L-25.2,-5.0 L-25.8,-2.5 L-26.5,0.1 L-27.1,2.6 L-25.7,3.7 L-23.1,3.6 L-20.4,3.4 L-18.6,2.1 L-16.0,1.6 L-13.4,1.6 L-11.0,2.1 L-9.2,3.9 L-7.3,4.1 L-5.4,2.5 L-6.7,0.2 L-4.3,-0.4 L-3.8,-2.3 L-4.5,-4.8 L-2.7,-5.7 L-0.2,-5.1 L2.2,-3.9 L4.8,-3.7 L7.4,-3.9 L10.0,-4.0 L11.7,-4.8 L10.9,-7.3 L10.2,-9.9 L10.2,-12.1 L9.2,-13.7 L6.9,-14.0 L4.5,-15.0 L2.0,-16.0 L-0.4,-17.0 L-0.2,-19.0 L0.8,-21.4 L3.1,-20.4 L5.5,-19.3 L7.9,-18.1 L10.2,-17.0 L12.6,-15.8 L15.0,-14.8 L17.4,-13.7 L19.1,-12.3 L18.0,-9.9 L17.2,-7.4 L17.2,-5.4 L18.8,-3.7 L21.1,-4.9 L23.4,-6.1 L26.0,-6.5 L28.6,-6.4 L31.2,-6.1 L33.8,-5.8 L36.3,-6.5 L38.6,-5.6 L40.8,-4.2 L42.4,-2.1 L42.2,0.5 L42.9,3.0 L43.3,5.6 L44.0,8.1 L42.7,9.1 L40.2,8.8 L37.8,9.5 L35.3,9.5 L32.8,8.6 L30.3,8.1 L27.7,8.9 L25.6,9.9 L23.4,9.3 L20.8,9.1 L18.3,8.3 L15.9,7.4 L14.5,5.2 L14.4,2.6 L13.7,0.2 L12.6,-2.2 L11.0,-3.6 L8.4,-3.4 L5.7,-3.3 L3.1,-3.2 L0.7,-4.3 L-1.2,-3.7 L0.5,-1.8 L-0.6,0.3 L-2.8,-0.6 L-3.6,1.6 L-2.3,3.9 L-1.5,6.4 L-1.9,9.0 L-2.6,11.5 L-3.9,13.8 L-2.5,15.5 L0.1,15.9 L2.5,16.9 L4.2,18.6 L4.3,20.8 L1.7,21.5 L-0.8,22.2 L-3.1,23.1 L-3.8,25.0 L-5.8,24.5 L-8.3,25.2 L-10.9,25.8 L-13.4,26.4 L-15.2,25.8 L-15.9,23.3 L-16.5,20.7 L-17.1,18.2 L-18.8,17.4 L-21.0,17.4 L-22.6,16.1 L-25.2,16.7 L-27.8,17.3 L-29.3,16.3 L-30.9,15.2 L-33.5,15.7 L-35.3,14.9 L-36.0,12.4 L-37.1,10.0 L-38.5,7.7 L-39.9,5.5 L-41.3,3.3 L-42.8,1.1 L-44.0,-1.1 L-42.0,-1.3 L-39.7,-0.0 L-37.4,1.1 L-34.8,1.8 L-32.3,2.5 L-29.7,3.2 L-27.6,3.0 L-26.8,0.5 L-26.0,-2.0 L-25.3,-4.6 L-26.9,-5.8 L-29.5,-6.5 L-32.0,-7.3 L-34.6,-8.0 L-33.7,-10.3 L-32.7,-12.8 L-31.7,-15.2 L-29.7,-15.4 L-28.2,-13.2 L-26.1,-11.7 L-23.6,-10.8 L-21.1,-9.9 L-18.9,-8.7 L-17.6,-6.3 L-16.0,-4.7 L-14.6,-2.7 L-13.5,-0.4 L-11.8,1.5 L-9.9,3.4 L-8.7,5.5 L-8.3,7.9 L-6.7,9.9 L-4.2,10.6 L-2.4,10.1 L-1.7,7.6 L-2.0,5.0 L-3.3,2.8 L-5.2,2.4 L-6.6,0.2 L-4.1,-0.5 L-3.7,-2.4 L-4.5,-5.0 L-2.4,-5.6 L0.1,-4.9 L2.5,-3.7 L5.1,-3.8 L7.7,-3.9 L10.4,-4.1 L11.5,-5.4 L10.8,-7.9 L10.0,-10.4 L10.5,-12.6 L8.8,-13.3 L6.4,-14.2 L4.0,-15.2 L1.5,-16.2 L-0.8,-17.2 L0.1,-19.7 L0.1,-21.9 L-2.2,-23.1 L-2.2,-23.7 L-0.2,-24.4 L0.6,-24.6 L1.4,-24.1"
        fill="none"
        stroke="currentColor"
        stroke-opacity="0.18"
        stroke-width="2"
        stroke-linecap="round"
        stroke-linejoin="round"
        vector-effect="non-scaling-stroke"/>
</svg>
