<?xml version="1.0" encoding="UTF-8"?>
<svg xmlns="http://www.w3.org/2000/svg"
     viewBox="-50.0 -50.0 100.0 100.0"
     role="img"
     aria-label="TCS Sydney Marathon 2025 route">
  <title>TCS Sydney Marathon 2025 route</title>
  <desc>Course route polyline, normalized for abstract display. Source page: https://www.goandrace.com/en/map/2025/tcs-sydney-marathon-2025-course-map-1.php</desc>
  <path d="M-6.3,-44.0 L-6.6,-42.5 L-6.9,-40.9 L-7.1,-39.4 L-6.5,-38.0 L-5.6,-36.8 L-4.5,-35.7 L-3.9,-34.2 L-3.5,-32.7 L-3.0,-31.2 L-3.0,-29.7 L-3.6,-28.2 L-4.3,-26.8 L-5.0,-25.5 L-5.7,-24.1 L-6.5,-22.7 L-7.2,-21.3 L-7.8,-19.9 L-8.2,-18.4 L-8.8,-16.9 L-9.4,-15.5 L-10.0,-14.1 L-10.0,-12.5 L-9.9,-11.0 L-9.8,-9.4 L-10.1,-7.9 L-11.5,-7.2 L-13.0,-7.0 L-14.5,-6.5 L-15.2,-7.9 L-15.9,-9.3 L-16.6,-10.7 L-17.3,-12.1 L-17.9,-13.5 L-18.1,-14.9 L-18.2,-16.4 L-17.2,-15.9 L-16.5,-14.5 L-16.6,-13.2 L-16.3,-11.9 L-15.6,-10.5 L-14.9,-9.1 L-14.1,-7.8 L-12.6,-7.5 L-11.1,-8.0 L-10.3,-9.2 L-10.2,-10.8 L-9.7,-12.2 L-9.8,-13.7 L-10.0,-15.3 L-10.1,-16.8 L-10.2,-18.4 L-10.4,-19.9 L-10.4,-21.5 L-9.5,-22.6 L-8.0,-23.0 L-6.8,-24.1 L-6.0,-25.3 L-4.9,-24.6 L-5.8,-23.6 L-5.5,-22.1 L-5.8,-20.5 L-6.0,-19.0 L-5.5,-17.9 L-5.7,-16.4 L-5.8,-14.8 L-6.0,-13.3 L-5.8,-11.9 L-5.0,-12.7 L-4.8,-14.3 L-4.0,-15.5 L-3.1,-14.3 L-3.3,-12.8 L-3.4,-11.2 L-2.7,-9.9 L-2.9,-8.4 L-3.1,-6.8 L-3.2,-5.3 L-2.5,-4.1 L-1.4,-3.0 L-0.3,-1.9 L0.4,-0.5 L0.7,1.0 L1.2,2.5 L1.8,3.9 L2.3,5.4 L2.8,6.9 L3.2,8.4 L3.4,9.9 L3.7,11.4 L3.9,13.0 L4.1,14.5 L4.3,16.1 L4.0,17.2 L2.4,17.1 L0.9,16.9 L-0.6,16.8 L0.9,17.0 L2.5,17.1 L4.0,17.3 L4.9,18.5 L5.5,19.9 L5.4,21.5 L5.2,23.0 L5.0,24.5 L4.9,26.1 L5.7,27.4 L6.5,28.7 L6.8,30.3 L7.1,31.8 L7.3,33.3 L7.5,34.9 L7.9,36.4 L8.5,37.8 L9.6,38.9 L10.8,39.9 L11.9,41.0 L13.1,42.0 L14.4,42.9 L15.3,44.0 L14.6,42.7 L13.4,41.7 L12.1,40.8 L11.0,39.7 L9.9,38.6 L8.7,37.7 L7.9,36.3 L7.7,34.8 L7.4,33.2 L7.2,31.7 L6.9,30.1 L6.6,28.6 L5.8,27.3 L5.0,26.0 L5.2,24.5 L5.4,22.9 L5.5,21.4 L5.6,19.8 L5.0,18.4 L4.6,16.9 L4.4,15.3 L4.1,13.8 L3.9,12.3 L3.7,10.7 L3.4,9.2 L3.1,7.7 L2.7,6.2 L2.2,4.7 L2.5,4.9 L3.0,6.4 L3.4,7.9 L4.9,8.2 L5.3,9.6 L5.4,11.1 L4.8,11.9 L5.2,12.4 L6.7,13.0 L8.0,13.7 L8.4,15.1 L8.5,16.6 L9.4,17.9 L10.5,19.0 L11.8,19.9 L13.3,20.1 L14.7,19.4 L15.9,18.5 L17.3,17.8 L18.2,16.5 L18.2,15.0 L17.6,13.6 L16.6,12.4 L15.5,11.3 L14.1,10.7 L12.5,10.8 L11.3,11.6 L10.3,12.9 L8.9,13.5 L7.5,13.1 L6.1,12.4 L5.5,11.2 L5.3,9.6 L5.2,8.1 L5.0,6.5 L4.2,5.3 L3.6,4.2 L2.1,4.0 L1.3,2.7 L0.8,1.2 L0.5,-0.3 L-0.0,-1.7 L-1.1,-2.8 L-2.2,-3.9 L-3.2,-5.1 L-3.0,-6.6 L-2.8,-8.2 L-2.7,-9.7 L-1.9,-10.8 L-0.7,-11.8 L0.5,-12.8 L1.6,-13.9 L2.5,-15.1 L3.3,-16.4 L4.2,-17.6 L4.2,-19.0 L4.0,-19.7 L3.7,-18.2 L3.2,-16.7 L2.2,-15.5 L1.4,-14.2 L0.5,-12.9 L-0.6,-11.8 L-1.9,-10.9 L-3.2,-11.1 L-3.2,-12.6 L-3.0,-14.1 L-2.9,-15.7 L-2.7,-17.2 L-2.6,-18.8 L-2.4,-20.3 L-1.6,-21.6"
        fill="none"
        stroke="currentColor"
        stroke-opacity="0.18"
        stroke-width="2"
        stroke-linecap="round"
        stroke-linejoin="round"
        vector-effect="non-scaling-stroke"/>
</svg>
