<?xml version="1.0" encoding="UTF-8"?>
<svg xmlns="http://www.w3.org/2000/svg"
     viewBox="-50.0 -50.0 100.0 100.0"
     role="img"
     aria-label="Tokyo Marathon 2025 route">
  <title>Tokyo Marathon 2025 route</title>
  <desc>Course route polyline, normalized for abstract display. Source page: https://www.goandrace.com/en/map/2025/tokyo-marathon-2025-tokyo-course-map-1.php</desc>
  <path d="M-44.0,-11.5 L-43.7,-9.8 L-42.6,-9.0 L-42.8,-10.7 L-43.1,-12.4 L-43.1,-14.0 L-41.4,-13.9 L-40.1,-14.5 L-38.6,-15.1 L-36.8,-15.1 L-35.1,-14.7 L-33.4,-14.2 L-31.7,-13.7 L-30.0,-13.4 L-28.2,-13.1 L-26.5,-12.9 L-24.7,-12.9 L-23.0,-13.0 L-21.3,-13.5 L-19.6,-13.9 L-17.8,-13.9 L-16.1,-13.6 L-14.5,-12.9 L-12.8,-12.7 L-11.0,-13.0 L-9.4,-13.5 L-7.9,-14.5 L-6.7,-15.8 L-5.7,-17.2 L-4.8,-18.7 L-3.8,-20.2 L-2.8,-21.7 L-1.8,-23.1 L-0.6,-24.4 L1.0,-24.9 L2.8,-24.9 L4.5,-24.7 L6.3,-24.5 L7.8,-23.9 L8.3,-22.2 L9.0,-20.6 L9.7,-19.0 L10.7,-17.7 L12.4,-17.6 L13.8,-16.4 L15.4,-16.2 L17.1,-16.7 L18.7,-17.5 L20.4,-17.7 L20.9,-19.4 L21.1,-21.2 L21.2,-22.9 L21.4,-24.7 L21.6,-26.4 L21.9,-28.1 L22.5,-29.2 L21.8,-27.6 L21.6,-25.9 L21.5,-24.1 L21.3,-22.4 L21.1,-20.6 L20.9,-18.9 L20.4,-17.2 L20.8,-15.5 L21.3,-13.8 L21.9,-12.1 L22.4,-10.5 L22.9,-8.8 L23.5,-7.1 L23.7,-5.4 L23.5,-3.9 L25.1,-3.1 L26.7,-2.3 L28.2,-1.5 L29.2,-3.0 L30.2,-4.3 L31.7,-5.2 L33.2,-6.2 L34.7,-7.1 L34.1,-8.6 L33.2,-10.1 L32.3,-11.6 L32.2,-13.3 L32.4,-15.1 L32.5,-16.8 L33.1,-18.5 L33.9,-20.0 L34.8,-21.6 L35.7,-23.1 L36.7,-24.5 L38.0,-25.8 L39.2,-27.0 L40.2,-28.4 L41.1,-30.0 L41.6,-31.6 L42.5,-32.6 L42.0,-31.2 L41.1,-29.7 L40.1,-28.2 L39.1,-26.8 L37.9,-25.5 L36.6,-24.2 L36.7,-23.3 L38.5,-23.1 L40.1,-22.4 L41.8,-22.0 L42.5,-20.8 L42.6,-19.0 L42.7,-17.2 L42.9,-15.5 L43.0,-13.7 L43.1,-12.0 L43.3,-10.2 L43.4,-8.4 L43.5,-6.7 L43.7,-4.9 L43.8,-3.2 L44.0,-1.4 L43.3,0.1 L42.3,1.6 L41.7,3.2 L41.3,4.9 L40.9,6.4 L42.5,7.3 L44.0,8.1 L43.2,7.7 L41.6,6.9 L40.7,5.8 L41.4,4.2 L41.7,2.4 L42.7,0.9 L43.6,-0.5 L43.8,-2.2 L43.7,-4.0 L43.5,-5.7 L43.4,-7.5 L43.3,-9.2 L43.1,-11.0 L43.0,-12.8 L42.9,-14.5 L42.7,-16.3 L42.6,-18.0 L42.5,-19.8 L42.3,-21.5 L40.9,-22.0 L39.2,-22.7 L37.6,-23.1 L35.8,-23.2 L34.9,-21.7 L34.1,-20.1 L33.3,-18.6 L32.7,-16.9 L32.5,-15.2 L32.3,-13.4 L32.4,-11.7 L33.2,-10.1 L34.1,-8.6 L35.0,-7.1 L33.5,-6.2 L32.0,-5.3 L30.5,-4.3 L29.3,-3.1 L28.5,-1.5 L26.9,-2.0 L25.3,-2.8 L23.8,-3.6 L22.6,-3.0 L21.8,-1.4 L20.9,0.2 L20.1,1.7 L19.3,3.3 L18.2,4.7 L17.1,6.0 L15.9,7.3 L14.5,6.2 L13.1,5.1 L11.7,4.1 L10.5,4.9 L9.5,6.4 L8.8,8.0 L8.0,9.5 L7.3,11.2 L6.7,12.8 L6.1,14.5 L5.5,16.1 L4.8,17.8 L4.2,19.4 L3.9,21.2 L3.7,22.9 L3.4,24.6 L3.2,26.4 L3.0,28.1 L2.8,29.9 L2.5,31.6 L0.9,32.5 L0.5,32.6 L2.0,31.7 L2.6,30.2 L2.9,28.4 L3.1,26.7 L3.3,24.9 L3.5,23.2 L3.7,21.4 L4.0,19.7 L4.6,18.1 L5.3,16.4 L5.9,14.8 L6.5,13.1 L7.1,11.5 L7.7,9.8 L8.4,8.2 L9.2,6.6 L10.2,5.1 L11.3,3.8 L12.6,4.1 L13.0,2.4 L13.5,0.7 L14.0,-1.0 L14.4,-2.7 L13.5,-3.7"
        fill="none"
        stroke="currentColor"
        stroke-opacity="0.18"
        stroke-width="2"
        stroke-linecap="round"
        stroke-linejoin="round"
        vector-effect="non-scaling-stroke"/>
</svg>
