<?xml version="1.0" encoding="UTF-8"?>
<svg xmlns="http://www.w3.org/2000/svg"
     viewBox="-50.0 -50.0 100.0 100.0"
     role="img"
     aria-label="TCS Toronto Waterfront Marathon 2025 route">
  <title>TCS Toronto Waterfront Marathon 2025 route</title>
  <desc>Course route polyline, normalized for abstract display. Source page: https://www.goandrace.com/en/map/2025/tcs-toronto-waterfront-marathon-2025-course-map-1.php</desc>
  <path d="M-2.5,-7.0 L-2.9,-8.1 L-3.2,-9.3 L-3.6,-10.4 L-3.9,-11.6 L-4.3,-12.8 L-5.0,-13.3 L-6.1,-13.0 L-7.3,-12.6 L-8.4,-12.3 L-9.6,-12.0 L-10.8,-11.6 L-11.9,-11.3 L-13.1,-10.9 L-14.3,-10.6 L-15.4,-10.3 L-16.6,-9.9 L-16.6,-8.9 L-16.2,-7.8 L-15.9,-6.6 L-15.5,-5.5 L-15.2,-4.3 L-14.9,-3.1 L-14.5,-2.0 L-14.2,-0.8 L-13.8,0.3 L-13.5,1.5 L-13.2,2.7 L-12.9,3.8 L-12.5,5.0 L-12.2,6.1 L-11.8,7.3 L-11.5,8.5 L-12.5,9.1 L-13.6,9.5 L-14.6,10.0 L-14.9,11.0 L-15.7,11.8 L-16.3,12.8 L-17.4,13.3 L-18.5,13.8 L-19.7,14.0 L-20.9,14.3 L-22.1,14.5 L-23.3,14.6 L-24.4,14.5 L-25.5,14.0 L-26.5,13.2 L-27.5,12.6 L-28.7,12.3 L-29.9,12.2 L-30.9,11.5 L-31.9,10.9 L-33.0,10.3 L-34.1,9.7 L-35.2,9.3 L-36.4,9.0 L-37.5,8.8 L-38.7,8.8 L-40.0,8.9 L-41.1,9.1 L-42.3,9.3 L-43.4,9.8 L-44.0,10.3 L-43.0,9.7 L-41.8,9.5 L-40.6,9.2 L-39.4,9.0 L-38.2,9.1 L-37.1,9.3 L-35.9,9.6 L-34.7,9.8 L-33.6,10.1 L-32.5,10.7 L-31.4,11.2 L-30.4,11.8 L-29.5,12.7 L-28.5,13.2 L-27.3,13.5 L-26.1,13.8 L-25.0,14.2 L-23.9,14.7 L-22.7,14.5 L-21.5,14.4 L-20.3,14.2 L-19.1,14.0 L-18.0,13.6 L-16.9,13.1 L-16.0,12.4 L-15.4,11.3 L-14.3,10.9 L-13.1,10.7 L-11.9,10.5 L-10.8,10.1 L-9.7,9.6 L-8.6,9.1 L-7.4,8.8 L-6.3,8.4 L-5.1,8.1 L-4.0,7.8 L-2.8,7.4 L-1.7,7.1 L-1.7,6.1 L-2.0,5.0 L-2.3,3.8 L-2.2,3.0 L-1.0,2.6 L0.1,2.3 L1.3,1.9 L2.4,1.5 L3.5,1.0 L4.7,0.6 L5.8,0.2 L7.0,-0.2 L8.1,-0.5 L8.9,-1.3 L9.8,-1.8 L10.5,-1.3 L11.6,-1.6 L12.2,-2.4 L12.5,-3.5 L11.8,-4.5 L11.5,-5.6 L11.2,-6.8 L10.9,-8.0 L10.7,-9.2 L10.4,-10.3 L10.5,-9.8 L10.8,-8.6 L11.1,-7.4 L11.3,-6.2 L11.6,-5.1 L12.2,-4.0 L12.4,-3.0 L12.2,-1.8 L11.1,-1.4 L10.0,-1.2 L10.1,-2.3 L11.1,-2.9 L12.1,-3.6 L13.2,-4.1 L14.4,-4.0 L15.6,-3.9 L16.7,-4.3 L17.9,-4.6 L19.1,-5.0 L19.8,-4.6 L20.2,-3.5 L20.9,-3.0 L21.9,-3.7 L22.9,-4.3 L23.9,-5.0 L25.0,-5.5 L26.1,-5.9 L27.3,-6.3 L28.4,-6.8 L29.5,-7.1 L30.7,-7.5 L31.9,-7.8 L33.0,-8.2 L34.2,-8.5 L35.3,-8.9 L36.4,-9.4 L37.0,-10.4 L36.7,-11.6 L36.8,-12.5 L38.0,-12.9 L39.1,-13.2 L40.3,-13.6 L41.5,-13.9 L42.6,-14.2 L43.8,-14.6 L44.0,-14.7 L42.8,-14.3 L41.7,-14.0 L40.5,-13.6 L39.4,-13.3 L38.2,-12.9 L37.0,-12.6 L36.6,-11.8 L36.9,-10.7 L36.5,-9.6 L35.4,-9.0 L34.3,-8.6 L33.1,-8.3 L32.0,-7.9 L30.8,-7.5 L29.7,-7.2 L28.5,-6.8 L27.4,-6.5 L26.2,-6.1 L25.1,-5.8 L24.0,-5.2 L23.0,-4.5 L22.0,-3.9 L21.0,-3.2 L20.2,-3.4 L19.9,-4.6 L19.1,-5.0 L18.0,-4.6 L16.8,-4.3 L15.7,-3.9 L14.5,-4.1 L13.3,-4.2 L12.2,-3.7 L11.2,-3.1 L10.2,-2.3 L9.3,-1.6 L8.5,-0.7 L7.4,-0.3 L6.2,0.1 L5.1,0.4 L3.9,0.8 L2.8,1.3 L1.7,1.8 L0.5,2.1 L-0.6,2.5 L-1.2,1.7 L-1.5,0.5 L-1.9,-0.6"
        fill="none"
        stroke="currentColor"
        stroke-opacity="0.18"
        stroke-width="2"
        stroke-linecap="round"
        stroke-linejoin="round"
        vector-effect="non-scaling-stroke"/>
</svg>
