<?xml version="1.0" encoding="UTF-8"?>
<svg xmlns="http://www.w3.org/2000/svg"
     viewBox="-50.0 -50.0 100.0 100.0"
     role="img"
     aria-label="Valencia Marathon 2025 route">
  <title>Valencia Marathon 2025 route</title>
  <desc>Course route polyline, normalized for abstract display. Source page: https://www.goandrace.com/en/map/2025/valencia-marathon-2025-valencia-course-map-1.php</desc>
  <path d="M12.0,25.4 L12.8,23.1 L13.9,21.2 L14.2,19.0 L16.3,19.5 L18.6,20.4 L20.9,21.2 L23.3,21.9 L25.6,22.6 L28.0,23.3 L30.4,23.6 L32.8,23.4 L35.2,22.8 L36.2,20.8 L37.8,19.0 L39.8,17.8 L42.2,17.5 L43.9,16.6 L44.0,14.2 L43.8,12.0 L43.3,9.7 L43.3,7.3 L43.3,4.8 L43.4,2.4 L41.8,1.2 L39.5,0.5 L37.2,-0.4 L35.1,-1.5 L32.8,-2.0 L30.5,-2.9 L28.2,-3.8 L25.9,-4.6 L23.6,-5.5 L21.3,-6.3 L19.0,-7.2 L16.7,-8.0 L17.9,-7.2 L20.2,-6.3 L21.5,-4.9 L20.7,-2.6 L20.0,-0.3 L19.1,2.0 L16.8,1.3 L14.6,0.2 L12.3,-0.4 L11.3,-2.1 L12.2,-4.4 L13.7,-6.4 L14.8,-8.2 L15.1,-10.5 L14.6,-12.9 L14.2,-15.3 L13.2,-17.4 L12.5,-19.6 L11.3,-21.7 L10.1,-23.8 L8.5,-25.4 L6.5,-24.2 L4.6,-22.6 L2.7,-21.1 L3.2,-19.7 L4.2,-18.2 L3.3,-15.9 L2.4,-13.6 L1.5,-11.3 L0.7,-9.1 L-0.2,-6.8 L-1.1,-4.5 L-1.5,-2.1 L-0.6,0.1 L0.7,2.2 L2.0,4.2 L3.3,6.3 L4.6,8.4 L6.4,9.4 L7.9,7.5 L8.8,5.2 L9.7,2.9 L10.5,0.6 L12.1,-0.2 L14.4,0.7 L16.7,1.5 L18.9,2.5 L21.1,3.4 L23.3,4.3 L25.6,5.2 L27.9,6.1 L30.2,6.9 L28.9,5.7 L26.6,4.8 L24.3,3.9 L22.0,3.0 L19.8,2.1 L20.2,-0.2 L21.0,-2.5 L21.8,-4.8 L23.6,-5.1 L25.9,-4.2 L28.2,-3.4 L30.5,-2.5 L32.7,-1.7 L34.9,-0.7 L37.2,-0.0 L39.5,0.8 L40.8,2.4 L40.5,4.8 L40.2,7.2 L39.9,9.7 L39.7,12.1 L39.4,14.5 L39.1,17.0 L37.7,18.8 L36.1,20.7 L34.3,21.4 L32.0,20.5 L29.8,19.6 L27.5,18.8 L25.2,17.9 L22.9,17.0 L20.6,16.1 L18.3,15.2 L16.0,14.4 L13.8,13.5 L11.5,12.6 L9.6,12.7 L8.8,15.0 L7.6,16.9 L7.2,14.7 L6.3,12.4 L5.2,10.3 L4.3,8.2 L3.0,6.2 L1.7,4.1 L0.4,2.0 L-0.9,-0.1 L-2.3,-2.1 L-4.3,-3.3 L-6.3,-4.8 L-8.1,-6.4 L-9.9,-8.0 L-11.8,-9.5 L-14.1,-10.1 L-16.5,-10.2 L-18.8,-9.3 L-19.4,-7.6 L-17.7,-7.2 L-15.4,-7.7 L-13.1,-6.8 L-11.1,-5.4 L-9.0,-4.2 L-7.0,-2.8 L-5.2,-1.1 L-4.4,1.1 L-4.7,3.5 L-6.6,3.6 L-9.0,3.0 L-9.4,5.1 L-9.3,7.3 L-11.0,8.2 L-12.9,8.5 L-14.6,9.3 L-16.2,10.0 L-18.1,8.5 L-20.1,7.4 L-21.6,5.8 L-22.8,3.6 L-23.9,1.5 L-25.2,-0.6 L-26.4,-2.7 L-27.7,-4.8 L-28.9,-6.9 L-30.8,-7.1 L-32.8,-6.0 L-34.9,-4.8 L-37.1,-3.8 L-39.6,-3.9 L-42.0,-4.1 L-44.0,-3.2 L-43.6,-0.7 L-43.2,1.7 L-42.9,4.1 L-42.6,6.5 L-43.0,8.9 L-43.4,11.3 L-43.1,13.7 L-42.8,16.1 L-42.4,18.5 L-41.4,20.7 L-40.4,22.9 L-38.7,23.2 L-37.1,21.3 L-35.5,19.5 L-33.9,17.6 L-32.3,15.7 L-30.8,13.9 L-29.3,11.9 L-27.2,11.8 L-24.8,12.4 L-22.4,12.9 L-20.1,13.5 L-17.7,13.9 L-16.2,12.1 L-14.7,10.5 L-12.4,11.3 L-10.1,11.9 L-8.2,10.4 L-6.4,8.8 L-4.7,7.0 L-3.0,5.4 L-0.9,6.3 L0.9,7.8 L2.1,10.0 L3.1,12.2 L4.2,14.4 L5.0,16.7 L5.7,19.0 L6.9,21.2 L8.5,22.8 L10.6,23.9 L12.6,25.2"
        fill="none"
        stroke="currentColor"
        stroke-opacity="0.18"
        stroke-width="2"
        stroke-linecap="round"
        stroke-linejoin="round"
        vector-effect="non-scaling-stroke"/>
</svg>
