<?xml version="1.0" encoding="UTF-8"?>
<svg xmlns="http://www.w3.org/2000/svg"
     viewBox="-50.0 -50.0 100.0 100.0"
     role="img"
     aria-label="Vienna City Marathon 2025 route">
  <title>Vienna City Marathon 2025 route</title>
  <desc>Course route polyline, normalized for abstract display. Source page: https://www.goandrace.com/en/map/2025/vienna-city-marathon-2025-vienna-course-map-1.php</desc>
  <path d="M27.7,-25.3 L26.3,-24.1 L24.8,-22.9 L23.4,-21.8 L21.9,-20.6 L20.5,-19.4 L19.1,-18.2 L17.6,-17.1 L16.2,-15.9 L14.7,-14.7 L13.3,-13.6 L11.8,-12.4 L10.2,-11.7 L10.2,-10.2 L11.8,-9.3 L13.3,-8.2 L14.8,-7.0 L16.2,-5.9 L17.7,-4.7 L19.2,-3.6 L20.6,-2.4 L22.1,-1.3 L23.5,-0.1 L25.0,1.0 L26.5,2.2 L27.9,3.4 L27.8,4.9 L27.6,6.8 L27.0,8.5 L26.0,10.1 L24.7,11.4 L23.9,9.9 L23.0,8.3 L22.0,6.8 L20.4,5.8 L18.6,5.2 L16.8,4.8 L15.6,3.4 L15.2,1.6 L14.9,-0.3 L14.4,-2.0 L13.6,-3.7 L12.5,-5.2 L10.8,-6.1 L9.0,-6.5 L7.3,-6.0 L5.6,-5.1 L4.6,-4.0 L4.2,-2.2 L3.6,-0.5 L2.6,1.1 L1.5,2.6 L0.5,4.1 L-0.6,5.7 L-2.0,6.7 L-3.8,6.2 L-5.5,5.6 L-6.5,6.7 L-7.6,8.1 L-9.0,9.4 L-10.5,10.4 L-12.2,11.2 L-14.0,11.7 L-15.5,12.8 L-16.0,14.5 L-16.0,16.3 L-16.8,18.0 L-18.3,19.1 L-20.1,19.5 L-21.9,20.0 L-23.8,20.2 L-25.6,20.4 L-27.4,20.9 L-28.5,22.4 L-29.5,23.9 L-31.0,25.0 L-32.8,25.3 L-34.7,25.3 L-36.4,24.6 L-38.1,23.8 L-39.8,23.1 L-41.5,22.3 L-43.2,21.5 L-44.0,20.2 L-43.3,18.6 L-41.4,18.7 L-39.6,18.8 L-37.7,18.5 L-36.0,17.9 L-34.2,17.5 L-32.3,17.3 L-30.8,16.4 L-29.6,15.0 L-28.2,13.8 L-26.5,13.0 L-24.8,12.3 L-23.1,11.8 L-21.3,11.3 L-19.6,10.6 L-18.0,9.6 L-16.3,8.7 L-14.6,8.0 L-12.9,7.4 L-11.3,6.4 L-11.2,5.0 L-12.4,3.6 L-13.7,2.2 L-14.8,0.7 L-15.1,-1.1 L-14.9,-2.9 L-14.6,-4.8 L-14.3,-6.6 L-12.9,-6.8 L-11.1,-6.7 L-9.5,-7.7 L-9.3,-9.0 L-10.3,-10.6 L-11.1,-12.3 L-11.7,-14.0 L-12.7,-15.6 L-13.5,-17.3 L-12.8,-18.1 L-11.0,-18.7 L-9.4,-19.6 L-7.8,-20.6 L-6.5,-20.1 L-5.6,-18.5 L-5.0,-16.7 L-4.9,-14.9 L-4.7,-13.1 L-3.4,-11.7 L-2.3,-10.3 L-1.3,-8.7 L-0.5,-7.0 L0.4,-5.6 L2.2,-4.9 L4.0,-4.9 L4.5,-6.1 L5.7,-7.4 L7.2,-8.5 L8.6,-9.6 L10.1,-10.2 L11.7,-9.4 L13.2,-8.2 L14.6,-7.1 L16.1,-5.9 L17.6,-4.8 L19.0,-3.6 L20.5,-2.5 L22.0,-1.3 L23.4,-0.2 L24.9,1.0 L26.4,2.1 L27.8,3.3 L29.1,2.4 L29.8,0.7 L30.1,-1.0 L31.1,-2.5 L30.1,-0.9 L29.8,0.8 L29.1,2.5 L28.8,4.0 L30.3,5.2 L31.7,6.3 L33.2,7.5 L34.7,8.6 L36.1,9.8 L37.6,11.0 L39.0,12.1 L40.5,13.3 L42.0,14.4 L43.4,15.6 L44.0,16.3 L42.7,15.1 L41.2,13.9 L39.7,12.7 L38.3,11.6 L36.8,10.4 L35.4,9.3 L33.9,8.1 L32.4,7.0 L31.0,5.8 L29.5,4.7 L28.1,3.9 L27.8,5.7 L27.0,6.0 L25.4,6.9 L23.6,6.8 L22.2,5.6 L20.6,4.7 L19.0,3.8 L17.6,2.5 L16.6,1.0 L16.0,-0.8 L15.7,-2.6 L15.6,-4.4 L14.5,-5.9 L13.4,-7.2 L11.5,-6.8 L10.4,-5.7 L9.9,-3.9 L8.4,-3.5 L6.6,-3.6 L5.9,-2.2 L5.3,-0.4 L4.4,1.3 L2.9,0.6 L1.8,2.1 L0.8,3.7 L-0.3,5.2 L-1.5,6.5 L-3.3,6.4 L-5.0,5.7 L-6.8,5.2 L-8.6,4.6 L-9.9,3.2 L-11.1,1.8 L-11.8,0.3 L-11.5,-1.5 L-11.1,-3.4"
        fill="none"
        stroke="currentColor"
        stroke-opacity="0.18"
        stroke-width="2"
        stroke-linecap="round"
        stroke-linejoin="round"
        vector-effect="non-scaling-stroke"/>
</svg>
